<svg width="1139" height="85" viewBox="0 0 1139 85" fill="none" xmlns="http://www.w3.org/2000/svg" preserveAspectRatio="none">
<g filter="url(#filter0_d_432_102)">
<path d="M4 63.972V1.07818H52.8808V63.972H40.5457V9.61377L43.3804 12.9382H13.5003L16.3351 9.61377V63.972H4Z" fill="black"/>
<path d="M70.3892 63.972V1.07818H93.6038C98.405 1.07818 102.542 2.00661 106.016 3.86347C109.489 5.66044 112.17 8.26604 114.06 11.6803C115.95 15.0945 116.895 19.1676 116.895 23.8996C116.895 28.5718 115.95 32.6149 114.06 36.0292C112.17 39.4434 109.489 42.079 106.016 43.9358C102.542 45.7328 98.405 46.6313 93.6038 46.6313H77.2846L82.801 40.0723V63.972H70.3892ZM82.801 41.6896L77.2846 34.7713H92.9142C96.745 34.7713 99.6053 33.8129 101.495 31.8962C103.385 29.9794 104.33 27.3139 104.33 23.8996C104.33 20.4255 103.385 17.7301 101.495 15.8133C99.6053 13.8965 96.745 12.9382 92.9142 12.9382H77.2846L82.801 6.01983V41.6896Z" fill="black"/>
<path d="M129.296 63.972V1.07818H141.632V42.049L167.221 1.07818H178.867V63.972H166.608V23.091L141.019 63.972H129.296Z" fill="black"/>
<path d="M196.434 63.972V1.07818H239.722V12.6686H208.769V25.6068H223.632C230.119 25.6068 235.048 27.1941 238.419 30.3687C241.841 33.5434 243.553 38.1556 243.553 44.2054C243.553 50.4349 241.663 55.2867 237.883 58.7608C234.103 62.2349 228.766 63.972 221.87 63.972H196.434ZM208.769 53.1902H221.181C224.348 53.1902 226.774 52.4714 228.459 51.0338C230.145 49.5364 230.988 47.38 230.988 44.5648C230.988 39.0541 227.719 36.2987 221.181 36.2987H208.769V53.1902Z" fill="black"/>
<path d="M268.627 26.4154H294.447V37.7363H268.627V26.4154ZM269.547 52.2917H298.737V63.972H257.212V1.07818H297.741V12.7585H269.547V52.2917Z" fill="black"/>
<path d="M312.976 63.972V1.07818H350.825L350.748 12.9382H322.4L325.235 9.61377L325.312 63.972H312.976Z" fill="black"/>
<path d="M399.382 1.07818H411.793V63.972H399.382V1.07818ZM375.018 63.972H362.606V1.07818H375.018V63.972ZM400.301 38.1855H374.098V25.8763H400.301V38.1855Z" fill="black"/>
<path d="M431.283 52.112C434.245 53.1303 436.723 53.4298 438.715 53.0105C440.758 52.5313 442.571 50.8541 444.154 47.979L446.759 43.3967L447.909 41.8693L465.683 1.07818H477.865L455.034 50.8541C452.991 55.3466 450.565 58.7907 447.755 61.1867C444.997 63.5827 441.958 64.9304 438.638 65.2299C435.318 65.5893 431.87 64.9004 428.295 63.1634L431.283 52.112ZM447.679 53.9988L423.468 1.07818H436.723L454.498 43.3069L447.679 53.9988Z" fill="black"/>
<path d="M499.621 63.972V9.61377L502.456 12.9382H482.536V1.07818H529.042V12.9382H509.121L511.88 9.61377V63.972H499.621Z" fill="black"/>
<path d="M567.021 21.7433C573.508 21.7433 578.514 23.4504 582.038 26.8646C585.562 30.219 587.324 35.2804 587.324 42.049C587.324 49.2369 585.358 54.6877 581.425 58.4014C577.543 62.1151 572.155 63.972 565.259 63.972H541.049V1.07818H553.384V21.7433H567.021ZM564.57 53.1902C567.736 53.1902 570.239 52.2618 572.078 50.4049C573.917 48.548 574.836 45.8526 574.836 42.3186C574.836 38.8444 573.917 36.3586 572.078 34.8611C570.29 33.3038 567.788 32.5251 564.57 32.5251H553.384V53.1902H564.57Z" fill="black"/>
<path d="M661.098 63.972L644.396 33.6931L654.433 26.5951L675.195 63.972H661.098ZM626.238 63.972V1.07818H638.573V63.972H626.238ZM634.972 38.6348V26.5053H653.666V38.6348H634.972ZM655.582 34.1424L644.166 32.5251L661.558 1.07818H674.659L655.582 34.1424Z" fill="black"/>
<path d="M712.856 63.972V1.07818H761.737V63.972H749.402V9.61377L752.237 12.9382H722.357L725.191 9.61377V63.972H712.856Z" fill="black"/>
<path d="M804.912 65.0502C800.672 65.0502 796.739 64.2415 793.113 62.6243C789.538 61.007 786.422 58.7308 783.766 55.7958C781.161 52.8608 779.118 49.4166 777.636 45.4632C776.206 41.5099 775.491 37.1972 775.491 32.5251C775.491 27.853 776.206 23.5403 777.636 19.5869C779.118 15.6336 781.186 12.1894 783.842 9.25438C786.498 6.31933 789.614 4.04317 793.19 2.4259C796.765 0.808633 800.647 0 804.835 0C809.074 0 812.956 0.808633 816.481 2.4259C820.056 4.04317 823.146 6.31933 825.751 9.25438C828.407 12.1894 830.476 15.6336 831.957 19.5869C833.438 23.4804 834.179 27.7931 834.179 32.5251C834.179 37.1972 833.438 41.5399 831.957 45.5531C830.476 49.5064 828.407 52.9506 825.751 55.8857C823.146 58.7608 820.056 61.007 816.481 62.6243C812.956 64.2415 809.1 65.0502 804.912 65.0502ZM804.835 52.6511C807.236 52.6511 809.432 52.1719 811.424 51.2135C813.467 50.2552 815.255 48.8775 816.787 47.0805C818.319 45.2835 819.494 43.1571 820.312 40.7013C821.18 38.2454 821.614 35.52 821.614 32.5251C821.614 29.5301 821.18 26.8047 820.312 24.3489C819.494 21.893 818.319 19.7666 816.787 17.9697C815.306 16.1727 813.544 14.795 811.501 13.8366C809.458 12.8783 807.236 12.3991 804.835 12.3991C802.434 12.3991 800.213 12.8783 798.17 13.8366C796.178 14.795 794.415 16.1727 792.883 17.9697C791.351 19.7666 790.15 21.893 789.282 24.3489C788.465 26.8047 788.056 29.5301 788.056 32.5251C788.056 35.4601 788.465 38.1855 789.282 40.7013C790.15 43.1571 791.325 45.2835 792.806 47.0805C794.339 48.8775 796.126 50.2552 798.17 51.2135C800.213 52.1719 802.434 52.6511 804.835 52.6511Z" fill="black"/>
<path d="M847.954 63.972V1.07818H858.221L881.052 45.4632H875.612L898.061 1.07818H908.327L908.404 63.972H896.758L896.682 22.0128H898.904L880.899 57.3232H875.383L856.995 22.0128H859.6V63.972H847.954Z" fill="black"/>
<path d="M951.607 65.0502C947.367 65.0502 943.434 64.2415 939.808 62.6243C936.233 61.007 933.117 58.7308 930.461 55.7958C927.856 52.8608 925.813 49.4166 924.332 45.4632C922.901 41.5099 922.186 37.1972 922.186 32.5251C922.186 27.853 922.901 23.5403 924.332 19.5869C925.813 15.6336 927.881 12.1894 930.537 9.25438C933.193 6.31933 936.309 4.04317 939.885 2.4259C943.46 0.808633 947.342 0 951.53 0C955.769 0 959.651 0.808633 963.176 2.4259C966.751 4.04317 969.841 6.31933 972.446 9.25438C975.102 12.1894 977.171 15.6336 978.652 19.5869C980.133 23.4804 980.874 27.7931 980.874 32.5251C980.874 37.1972 980.133 41.5399 978.652 45.5531C977.171 49.5064 975.102 52.9506 972.446 55.8857C969.841 58.7608 966.751 61.007 963.176 62.6243C959.651 64.2415 955.795 65.0502 951.607 65.0502ZM951.53 52.6511C953.931 52.6511 956.127 52.1719 958.119 51.2135C960.162 50.2552 961.95 48.8775 963.482 47.0805C965.014 45.2835 966.189 43.1571 967.006 40.7013C967.875 38.2454 968.309 35.52 968.309 32.5251C968.309 29.5301 967.875 26.8047 967.006 24.3489C966.189 21.893 965.014 19.7666 963.482 17.9697C962.001 16.1727 960.239 14.795 958.196 13.8366C956.153 12.8783 953.931 12.3991 951.53 12.3991C949.129 12.3991 946.908 12.8783 944.865 13.8366C942.873 14.795 941.11 16.1727 939.578 17.9697C938.046 19.7666 936.845 21.893 935.977 24.3489C935.16 26.8047 934.751 29.5301 934.751 32.5251C934.751 35.4601 935.16 38.1855 935.977 40.7013C936.845 43.1571 938.02 45.2835 939.501 47.0805C941.034 48.8775 942.821 50.2552 944.865 51.2135C946.908 52.1719 949.129 52.6511 951.53 52.6511Z" fill="black"/>
<path d="M1026.67 52.112L1023.92 55.4364V1.07818H1036.25V55.4364L1033.34 52.112H1056.02L1053.11 55.4364V1.07818H1065.44V63.972H994.649V1.07818H1006.98V55.4364L1004.15 52.112H1026.67ZM1061.23 77V60.5578L1064.14 63.972H1052.88V52.112H1072.72V77H1061.23Z" fill="black"/>
<path d="M1085.43 63.972V1.07818H1097.76V42.049L1123.35 1.07818H1135V63.972H1122.74V23.091L1097.15 63.972H1085.43Z" fill="black"/>
</g>
<defs>
<filter id="filter0_d_432_102" x="0" y="0" width="1139" height="85" filterUnits="userSpaceOnUse" color-interpolation-filters="sRGB">
<feFlood flood-opacity="0" result="BackgroundImageFix"/>
<feColorMatrix in="SourceAlpha" type="matrix" values="0 0 0 0 0 0 0 0 0 0 0 0 0 0 0 0 0 0 127 0" result="hardAlpha"/>
<feOffset dy="4"/>
<feGaussianBlur stdDeviation="2"/>
<feComposite in2="hardAlpha" operator="out"/>
<feColorMatrix type="matrix" values="0 0 0 0 0 0 0 0 0 0 0 0 0 0 0 0 0 0 0.25 0"/>
<feBlend mode="normal" in2="BackgroundImageFix" result="effect1_dropShadow_432_102"/>
<feBlend mode="normal" in="SourceGraphic" in2="effect1_dropShadow_432_102" result="shape"/>
</filter>
</defs>
</svg>
