<svg width="977" height="106" viewBox="0 0 977 106" fill="none" xmlns="http://www.w3.org/2000/svg" preserveAspectRatio="none">
    <path d="M0 87.896V0.498047H15.9205L51.3259 62.176H42.8904L77.7017 0.498047H93.6223L93.7411 87.896H75.682L75.5631 29.5891H79.0086L51.0883 78.6567H42.534L14.0196 29.5891H18.0591V87.896H0Z" fill="black"/>
    <path d="M161.212 29.2145C171.271 29.2145 179.034 31.5867 184.499 36.3312C189.964 40.9924 192.697 48.0259 192.697 57.4315C192.697 67.4199 189.647 74.9944 183.548 80.155C177.529 85.3156 169.172 87.896 158.48 87.896H120.936V0.498047H140.064V29.2145H161.212ZM157.41 72.9135C162.321 72.9135 166.202 71.6233 169.054 69.043C171.905 66.4627 173.331 62.717 173.331 57.8061C173.331 52.9784 171.905 49.5241 169.054 47.4432C166.281 45.2791 162.4 44.197 157.41 44.197H140.064V72.9135H157.41ZM203.271 87.896V0.498047H222.399V87.896H203.271Z" fill="black"/>
    <path d="M289.827 87.896V0.498047H365.627V87.896H346.499V12.3592L350.895 16.9788H304.559L308.955 12.3592V87.896H289.827Z" fill="black"/>
    <path d="M392.778 87.896V0.498047H428.778C436.223 0.498047 442.639 1.78821 448.025 4.36853C453.411 6.86561 457.569 10.4864 460.5 15.2308C463.431 19.9753 464.896 25.6353 464.896 32.211C464.896 38.7034 463.431 44.3219 460.5 49.0663C457.569 53.8108 453.411 57.4732 448.025 60.0535C442.639 62.5506 436.223 63.7991 428.778 63.7991H403.471L412.026 54.6848V87.896H392.778ZM412.026 56.9321L403.471 47.3184H427.708C433.649 47.3184 438.085 45.9866 441.015 43.323C443.946 40.6595 445.411 36.9555 445.411 32.211C445.411 27.3833 443.946 23.6377 441.015 20.9741C438.085 18.3106 433.649 16.9788 427.708 16.9788H403.471L412.026 7.36502V56.9321Z" fill="black"/>
    <path d="M525.115 90.8944C518.54 90.8944 512.442 89.7707 506.818 87.5233C501.273 85.276 496.442 82.113 492.323 78.0344C488.284 73.9559 485.115 69.1698 482.818 63.6762C480.6 58.1826 479.492 52.1896 479.492 45.6972C479.492 39.2048 480.6 33.2118 482.818 27.7182C485.115 22.2246 488.323 17.4385 492.442 13.36C496.561 9.2814 501.392 6.11843 506.937 3.87106C512.481 1.62369 518.501 0.5 524.996 0.5C531.57 0.5 537.59 1.62369 543.055 3.87106C548.599 6.11843 553.391 9.2814 557.431 13.36C561.55 17.4385 564.758 22.2246 567.055 27.7182C569.351 33.1285 570.5 39.1215 570.5 45.6972C570.5 52.1896 569.351 58.2242 567.055 63.8011C564.758 69.2946 561.55 74.0807 557.431 78.1593C553.391 82.1546 548.599 85.276 543.055 87.5233C537.59 89.7707 531.61 90.8944 525.115 90.8944ZM524.996 73.6645C528.719 73.6645 532.124 72.9986 535.213 71.6669C538.382 70.3351 541.154 68.4207 543.53 65.9236C545.906 63.4265 547.728 60.4716 548.995 57.0589C550.342 53.6462 551.015 49.859 551.015 45.6972C551.015 41.5354 550.342 37.7482 548.995 34.3355C547.728 30.9228 545.906 27.9679 543.53 25.4708C541.233 22.9737 538.5 21.0593 535.332 19.7275C532.164 18.3958 528.719 17.7299 524.996 17.7299C521.273 17.7299 517.828 18.3958 514.659 19.7275C511.57 21.0593 508.838 22.9737 506.461 25.4708C504.085 27.9679 502.224 30.9228 500.877 34.3355C499.61 37.7482 498.976 41.5354 498.976 45.6972C498.976 49.7758 499.61 53.563 500.877 57.0589C502.224 60.4716 504.046 63.4265 506.343 65.9236C508.719 68.4207 511.491 70.3351 514.659 71.6669C517.828 72.9986 521.273 73.6645 524.996 73.6645Z" fill="black"/>
    <path d="M644.643 78.9065V16.9788H616.129L615.773 29.7139C615.535 35.1243 615.179 40.2433 614.703 45.071C614.307 49.8987 613.674 54.3102 612.802 58.3055C611.931 62.2176 610.783 65.5471 609.357 68.2939C608.01 71.0407 606.307 72.9967 604.248 74.162L583.694 71.4152C586.545 71.4984 588.882 70.458 590.704 68.2939C592.605 66.1297 594.11 63.0916 595.218 59.1795C596.327 55.1842 597.119 50.5229 597.595 45.1958C598.149 39.8687 598.545 34.0838 598.783 27.8411L599.733 0.498047H663.653V78.9065H644.643ZM580.961 106L581.08 71.4152H675.296V106H657.475V87.896H598.783V106H580.961Z" fill="black"/>
    <path d="M685.866 87.896L722.935 0.498047H741.944L779.132 87.896H758.934L728.519 10.7361H736.122L705.588 87.896H685.866ZM704.4 69.1678L709.509 53.8108H752.281L757.508 69.1678H704.4Z" fill="black"/>
    <path d="M814.398 35.7069H854.437V51.4385H814.398V35.7069ZM815.823 71.6649H861.09V87.896H796.695V0.498047H859.546V16.7291H815.823V71.6649Z" fill="black"/>
    <path d="M883.171 87.896V0.498047H899.092L934.497 62.176H926.062L960.873 0.498047H976.793L976.912 87.896H958.853L958.734 29.5891H962.18L934.259 78.6567H925.705L897.191 29.5891H901.23V87.896H883.171Z" fill="black"/>
</svg>
