<svg width="1139" height="109" viewBox="0 0 1139 109" fill="none" xmlns="http://www.w3.org/2000/svg" preserveAspectRatio="none">
<g filter="url(#filter0_d_432_105)">
<path d="M4 99.326V1.67403H19.8921L55.2342 70.5884H46.8137L81.5628 1.67403H97.4549L97.5735 99.326H79.5466L79.428 34.1782H82.8674L54.997 89.0028H46.4579L17.9945 34.1782H22.0268V99.326H4Z" fill="black"/>
<path d="M115.35 99.326L152.353 1.67403H171.328L208.449 99.326H188.288L157.927 13.1133H165.517L135.037 99.326H115.35ZM133.851 78.4006L138.951 61.2417H181.646L186.864 78.4006H133.851Z" fill="black"/>
<path d="M225.981 99.326V1.67403H261.916C269.348 1.67403 275.753 3.11556 281.129 5.99862C286.506 8.78867 290.656 12.8343 293.582 18.1354C296.507 23.4365 297.97 29.7606 297.97 37.1077C297.97 44.3619 296.507 50.6395 293.582 55.9406C290.656 61.2417 286.506 65.3338 281.129 68.2169C275.753 71.0069 269.348 72.4019 261.916 72.4019H236.655L245.194 62.2182V99.326H225.981ZM245.194 64.7293L236.655 53.9876H260.849C266.779 53.9876 271.206 52.4995 274.132 49.5235C277.057 46.5474 278.52 42.4088 278.52 37.1077C278.52 31.7136 277.057 27.5285 274.132 24.5525C271.206 21.5764 266.779 20.0884 260.849 20.0884H236.655L245.194 9.34668V64.7293Z" fill="black"/>
<path d="M370.892 99.326L345.037 52.3135L360.574 41.2928L392.714 99.326H370.892ZM316.93 99.326V1.67403H336.024V99.326H316.93ZM330.45 59.9862V41.1533H359.388V59.9862H330.45ZM362.353 53.0111L344.682 50.5L371.603 1.67403H391.883L362.353 53.0111Z" fill="black"/>
<path d="M425.908 41.0138H465.875V58.5912H425.908V41.0138ZM427.331 81.1906H472.517V99.326H408.237V1.67403H470.975V19.8094H427.331V81.1906Z" fill="black"/>
<path d="M512.467 99.326V14.9268L516.855 20.0884H486.019V1.67403H558.008V20.0884H527.173L531.442 14.9268V99.326H512.467Z" fill="black"/>
<path d="M615.167 101C608.604 101 602.516 99.7445 596.903 97.2334C591.368 94.7224 586.545 91.1883 582.434 86.6312C578.401 82.0741 575.239 76.7265 572.946 70.5884C570.732 64.4503 569.625 57.7541 569.625 50.5C569.625 43.2459 570.732 36.5497 572.946 30.4116C575.239 24.2735 578.441 18.9259 582.552 14.3688C586.664 9.81169 591.487 6.27762 597.021 3.76657C602.556 1.25552 608.565 0 615.048 0C621.61 0 627.619 1.25552 633.075 3.76657C638.609 6.27762 643.393 9.81169 647.425 14.3688C651.536 18.9259 654.739 24.2735 657.031 30.4116C659.324 36.4567 660.471 43.1529 660.471 50.5C660.471 57.7541 659.324 64.4968 657.031 70.7279C654.739 76.866 651.536 82.2136 647.425 86.7707C643.393 91.2348 638.609 94.7224 633.075 97.2334C627.619 99.7445 621.65 101 615.167 101ZM615.048 81.7486C618.764 81.7486 622.164 81.0046 625.247 79.5166C628.41 78.0286 631.177 75.8895 633.549 73.0994C635.921 70.3094 637.74 67.0078 639.005 63.1948C640.349 59.3817 641.021 55.1501 641.021 50.5C641.021 45.8499 640.349 41.6183 639.005 37.8052C637.74 33.9922 635.921 30.6906 633.549 27.9006C631.256 25.1105 628.529 22.9715 625.366 21.4834C622.203 19.9954 618.764 19.2514 615.048 19.2514C611.332 19.2514 607.893 19.9954 604.73 21.4834C601.646 22.9715 598.919 25.1105 596.547 27.9006C594.175 30.6906 592.317 33.9922 590.973 37.8052C589.708 41.6183 589.075 45.8499 589.075 50.5C589.075 55.0571 589.708 59.2887 590.973 63.1948C592.317 67.0078 594.135 70.3094 596.428 73.0994C598.8 75.8895 601.567 78.0286 604.73 79.5166C607.893 81.0046 611.332 81.7486 615.048 81.7486Z" fill="black"/>
<path d="M680.308 100.861C678.885 100.861 677.383 100.721 675.801 100.442C674.299 100.163 672.639 99.791 670.82 99.326L672.006 80.2141C673.113 80.5861 674.26 80.7721 675.446 80.7721C678.687 80.7721 681.217 79.2376 683.036 76.1685C684.854 73.0065 686.159 68.4959 686.95 62.6367C687.74 56.7776 688.254 49.663 688.491 41.2928L689.677 1.67403H753.483V99.326H734.507V14.9268L738.895 20.0884H702.249L706.162 14.6478L705.451 40.4558C705.214 50.035 704.66 58.5447 703.79 65.9848C702.921 73.425 701.577 79.7491 699.758 84.9572C697.94 90.1653 695.449 94.1179 692.286 96.8149C689.124 99.512 685.131 100.861 680.308 100.861Z" fill="black"/>
<path d="M820.47 101C813.908 101 807.82 99.7445 802.206 97.2334C796.671 94.7224 791.848 91.1883 787.737 86.6312C783.705 82.0741 780.542 76.7265 778.249 70.5884C776.035 64.4503 774.929 57.7541 774.929 50.5C774.929 43.2459 776.035 36.5497 778.249 30.4116C780.542 24.2735 783.744 18.9259 787.856 14.3688C791.967 9.81169 796.79 6.27762 802.325 3.76657C807.859 1.25552 813.868 0 820.351 0C826.914 0 832.923 1.25552 838.378 3.76657C843.913 6.27762 848.696 9.81169 852.729 14.3688C856.84 18.9259 860.042 24.2735 862.335 30.4116C864.628 36.4567 865.774 43.1529 865.774 50.5C865.774 57.7541 864.628 64.4968 862.335 70.7279C860.042 76.866 856.84 82.2136 852.729 86.7707C848.696 91.2348 843.913 94.7224 838.378 97.2334C832.923 99.7445 826.953 101 820.47 101ZM820.351 81.7486C824.067 81.7486 827.467 81.0046 830.551 79.5166C833.713 78.0286 836.481 75.8895 838.853 73.0994C841.225 70.3094 843.043 67.0078 844.308 63.1948C845.652 59.3817 846.324 55.1501 846.324 50.5C846.324 45.8499 845.652 41.6183 844.308 37.8052C843.043 33.9922 841.225 30.6906 838.853 27.9006C836.56 25.1105 833.832 22.9715 830.669 21.4834C827.507 19.9954 824.067 19.2514 820.351 19.2514C816.635 19.2514 813.196 19.9954 810.033 21.4834C806.95 22.9715 804.222 25.1105 801.85 27.9006C799.478 30.6906 797.62 33.9922 796.276 37.8052C795.011 41.6183 794.379 45.8499 794.379 50.5C794.379 55.0571 795.011 59.2887 796.276 63.1948C797.62 67.0078 799.439 70.3094 801.732 73.0994C804.104 75.8895 806.871 78.0286 810.033 79.5166C813.196 81.0046 816.635 81.7486 820.351 81.7486Z" fill="black"/>
<path d="M887.098 99.326V1.67403H945.685L945.566 20.0884H901.685L906.073 14.9268L906.192 99.326H887.098Z" fill="black"/>
<path d="M995.198 101C988.635 101 982.547 99.7445 976.934 97.2334C971.399 94.7224 966.576 91.1883 962.465 86.6312C958.432 82.0741 955.27 76.7265 952.977 70.5884C950.763 64.4503 949.656 57.7541 949.656 50.5C949.656 43.2459 950.763 36.5497 952.977 30.4116C955.27 24.2735 958.472 18.9259 962.583 14.3688C966.695 9.81169 971.518 6.27762 977.052 3.76657C982.587 1.25552 988.596 0 995.079 0C1001.64 0 1007.65 1.25552 1013.11 3.76657C1018.64 6.27762 1023.42 9.81169 1027.46 14.3688C1031.57 18.9259 1034.77 24.2735 1037.06 30.4116C1039.36 36.4567 1040.5 43.1529 1040.5 50.5C1040.5 57.7541 1039.36 64.4968 1037.06 70.7279C1034.77 76.866 1031.57 82.2136 1027.46 86.7707C1023.42 91.2348 1018.64 94.7224 1013.11 97.2334C1007.65 99.7445 1001.68 101 995.198 101ZM995.079 81.7486C998.795 81.7486 1002.19 81.0046 1005.28 79.5166C1008.44 78.0286 1011.21 75.8895 1013.58 73.0994C1015.95 70.3094 1017.77 67.0078 1019.04 63.1948C1020.38 59.3817 1021.05 55.1501 1021.05 50.5C1021.05 45.8499 1020.38 41.6183 1019.04 37.8052C1017.77 33.9922 1015.95 30.6906 1013.58 27.9006C1011.29 25.1105 1008.56 22.9715 1005.4 21.4834C1002.23 19.9954 998.795 19.2514 995.079 19.2514C991.363 19.2514 987.924 19.9954 984.761 21.4834C981.677 22.9715 978.95 25.1105 976.578 27.9006C974.206 30.6906 972.348 33.9922 971.004 37.8052C969.739 41.6183 969.106 45.8499 969.106 50.5C969.106 55.0571 969.739 59.2887 971.004 63.1948C972.348 67.0078 974.166 70.3094 976.459 73.0994C978.831 75.8895 981.598 78.0286 984.761 79.5166C987.924 81.0046 991.363 81.7486 995.079 81.7486Z" fill="black"/>
<path d="M1061.83 99.326V1.67403H1100.49C1110.13 1.67403 1117.65 3.85957 1123.02 8.23066C1128.4 12.6017 1131.09 18.8329 1131.09 26.924C1131.09 34.9222 1128.56 41.1533 1123.5 45.6174C1118.44 49.9885 1111.72 52.174 1103.33 52.174L1105.59 46.3149C1114.92 46.3149 1122.15 48.5005 1127.29 52.8716C1132.43 57.2426 1135 63.5668 1135 71.8439C1135 80.4001 1132.23 87.1427 1126.7 92.0718C1121.24 96.9079 1113.26 99.326 1102.74 99.326H1061.83ZM1080.92 82.5856H1102.03C1106.46 82.5856 1109.82 81.5626 1112.11 79.5166C1114.4 77.4705 1115.55 74.3085 1115.55 70.0304C1115.55 65.9383 1114.4 62.9158 1112.11 60.9627C1109.82 58.9167 1106.46 57.8936 1102.03 57.8936H1080.92V82.5856ZM1080.92 42.1298H1098.83C1103.02 42.1298 1106.18 41.1533 1108.32 39.2003C1110.45 37.1542 1111.52 34.1782 1111.52 30.2721C1111.52 26.366 1110.45 23.4365 1108.32 21.4834C1106.18 19.4374 1103.02 18.4144 1098.83 18.4144H1080.92V42.1298Z" fill="black"/>
</g>
<defs>
<filter id="filter0_d_432_105" x="0" y="0" width="1139" height="109" filterUnits="userSpaceOnUse" color-interpolation-filters="sRGB">
<feFlood flood-opacity="0" result="BackgroundImageFix"/>
<feColorMatrix in="SourceAlpha" type="matrix" values="0 0 0 0 0 0 0 0 0 0 0 0 0 0 0 0 0 0 127 0" result="hardAlpha"/>
<feOffset dy="4"/>
<feGaussianBlur stdDeviation="2"/>
<feComposite in2="hardAlpha" operator="out"/>
<feColorMatrix type="matrix" values="0 0 0 0 0 0 0 0 0 0 0 0 0 0 0 0 0 0 0.25 0"/>
<feBlend mode="normal" in2="BackgroundImageFix" result="effect1_dropShadow_432_105"/>
<feBlend mode="normal" in="SourceGraphic" in2="effect1_dropShadow_432_105" result="shape"/>
</filter>
</defs>
</svg>
