<svg width="1139" height="78" viewBox="0 0 1139 78" fill="none" xmlns="http://www.w3.org/2000/svg" preserveAspectRatio="none">
<g filter="url(#filter0_d_432_101)">
<path d="M4 67.1485V2.75953H53.6266V67.1485H41.1032V11.498L43.9813 14.9014H13.6453L16.5233 11.498V67.1485H4Z" fill="black"/>
<path d="M71.4022 67.1485V2.75953H94.9709C99.8454 2.75953 104.046 3.71003 107.572 5.61104C111.098 7.45072 113.821 10.1183 115.739 13.6137C117.658 17.1091 118.617 21.279 118.617 26.1235C118.617 30.9067 117.658 35.046 115.739 38.5414C113.821 42.0368 111.098 44.735 107.572 46.636C104.046 48.4757 99.8454 49.3955 94.9709 49.3955H78.4028L84.0033 42.6807V67.1485H71.4022ZM84.0033 44.3364L78.4028 37.2536H94.2708C98.1601 37.2536 101.064 36.2724 102.983 34.3101C104.901 32.3478 105.861 29.6189 105.861 26.1235C105.861 22.5668 104.901 19.8073 102.983 17.8449C101.064 15.8826 98.1601 14.9014 94.2708 14.9014H78.4028L84.0033 7.81866V44.3364Z" fill="black"/>
<path d="M158.026 68.2523C153.722 68.2523 149.729 67.4244 146.047 65.7687C142.417 64.113 139.254 61.7827 136.557 58.7779C133.912 55.7731 131.838 52.247 130.334 48.1997C128.882 44.1524 128.156 39.7372 128.156 34.954C128.156 30.1708 128.882 25.7556 130.334 21.7083C131.838 17.661 133.938 14.1349 136.635 11.1301C139.331 8.12527 142.495 5.795 146.125 4.13929C149.755 2.48357 153.696 1.65572 157.948 1.65572C162.252 1.65572 166.193 2.48357 169.771 4.13929C173.401 5.795 176.538 8.12527 179.183 11.1301C181.88 14.1349 183.98 17.661 185.484 21.7083C186.987 25.6943 187.739 30.1095 187.739 34.954C187.739 39.7372 186.987 44.1831 185.484 48.2917C183.98 52.339 181.88 55.8651 179.183 58.8699C176.538 61.8134 173.401 64.113 169.771 65.7687C166.193 67.4244 162.278 68.2523 158.026 68.2523ZM157.948 55.5585C160.385 55.5585 162.615 55.0679 164.637 54.0867C166.712 53.1056 168.527 51.6951 170.082 49.8554C171.638 48.0158 172.831 45.8388 173.66 43.3246C174.542 40.8103 174.983 38.0201 174.983 34.954C174.983 31.8879 174.542 29.0977 173.66 26.5834C172.831 24.0692 171.638 21.8922 170.082 20.0526C168.578 18.2129 166.789 16.8025 164.715 15.8213C162.641 14.8401 160.385 14.3495 157.948 14.3495C155.511 14.3495 153.255 14.8401 151.181 15.8213C149.158 16.8025 147.369 18.2129 145.813 20.0526C144.258 21.8922 143.039 24.0692 142.158 26.5834C141.328 29.0977 140.913 31.8879 140.913 34.954C140.913 37.9588 141.328 40.749 142.158 43.3246C143.039 45.8388 144.232 48.0158 145.736 49.8554C147.291 51.6951 149.106 53.1056 151.181 54.0867C153.255 55.0679 155.511 55.5585 157.948 55.5585Z" fill="black"/>
<path d="M230.505 63.1012C223.453 63.1012 217.463 61.9974 212.537 59.7897C207.662 57.5821 203.955 54.3933 201.414 50.2234C198.873 45.9921 197.602 40.841 197.602 34.77C197.602 28.6991 198.873 23.5786 201.414 19.4087C203.955 15.1774 207.662 11.958 212.537 9.75033C217.463 7.54271 223.453 6.4389 230.505 6.4389C230.609 6.4389 230.894 6.4389 231.361 6.4389C231.879 6.4389 232.372 6.4389 232.839 6.4389C233.357 6.4389 233.642 6.4389 233.694 6.4389C240.695 6.4389 246.606 7.54271 251.429 9.75033C256.304 11.958 259.985 15.1774 262.475 19.4087C264.964 23.6399 266.208 28.7604 266.208 34.77C266.208 40.7183 264.964 45.8388 262.475 50.1314C260.037 54.3627 256.433 57.5821 251.662 59.7897C246.944 61.9974 241.162 63.1012 234.317 63.1012C234.161 63.1012 233.798 63.1012 233.228 63.1012C232.657 63.1012 232.087 63.1012 231.516 63.1012C230.998 63.1012 230.661 63.1012 230.505 63.1012ZM231.672 51.6032C231.827 51.6032 232.035 51.6032 232.294 51.6032C232.553 51.6032 232.735 51.6032 232.839 51.6032C237.609 51.6032 241.55 50.9899 244.662 49.7635C247.825 48.4757 250.185 46.6053 251.74 44.1524C253.296 41.6382 254.074 38.4801 254.074 34.6781C254.074 30.876 253.27 27.7486 251.662 25.2957C250.055 22.8428 247.695 21.0337 244.584 19.8686C241.525 18.6421 237.661 18.0289 232.994 18.0289C232.89 18.0289 232.683 18.0289 232.372 18.0289C232.113 18.0289 231.879 18.0289 231.672 18.0289C226.745 18.0289 222.675 18.6115 219.46 19.7766C216.245 20.9417 213.833 22.7814 212.226 25.2957C210.618 27.7486 209.814 30.9067 209.814 34.77C209.814 38.6334 210.67 41.8222 212.381 44.3364C214.092 46.7893 216.556 48.629 219.771 49.8554C223.038 51.0206 227.005 51.6032 231.672 51.6032ZM226.149 70V0H237.739V70H226.149Z" fill="black"/>
<path d="M308.694 63.1012C301.641 63.1012 295.652 61.9974 290.726 59.7897C285.851 57.5821 282.143 54.3933 279.602 50.2234C277.061 45.9921 275.791 40.841 275.791 34.77C275.791 28.6991 277.061 23.5786 279.602 19.4087C282.143 15.1774 285.851 11.958 290.726 9.75033C295.652 7.54271 301.641 6.4389 308.694 6.4389C308.797 6.4389 309.083 6.4389 309.549 6.4389C310.068 6.4389 310.561 6.4389 311.027 6.4389C311.546 6.4389 311.831 6.4389 311.883 6.4389C318.884 6.4389 324.795 7.54271 329.618 9.75033C334.492 11.958 338.174 15.1774 340.663 19.4087C343.152 23.6399 344.397 28.7604 344.397 34.77C344.397 40.7183 343.152 45.8388 340.663 50.1314C338.226 54.3627 334.622 57.5821 329.851 59.7897C325.132 61.9974 319.35 63.1012 312.505 63.1012C312.35 63.1012 311.987 63.1012 311.416 63.1012C310.846 63.1012 310.275 63.1012 309.705 63.1012C309.186 63.1012 308.849 63.1012 308.694 63.1012ZM309.861 51.6032C310.016 51.6032 310.224 51.6032 310.483 51.6032C310.742 51.6032 310.924 51.6032 311.027 51.6032C315.798 51.6032 319.739 50.9899 322.851 49.7635C326.014 48.4757 328.373 46.6053 329.929 44.1524C331.485 41.6382 332.262 38.4801 332.262 34.6781C332.262 30.876 331.459 27.7486 329.851 25.2957C328.244 22.8428 325.884 21.0337 322.773 19.8686C319.713 18.6421 315.85 18.0289 311.183 18.0289C311.079 18.0289 310.872 18.0289 310.561 18.0289C310.301 18.0289 310.068 18.0289 309.861 18.0289C304.934 18.0289 300.863 18.6115 297.648 19.7766C294.433 20.9417 292.022 22.7814 290.414 25.2957C288.807 27.7486 288.003 30.9067 288.003 34.77C288.003 38.6334 288.859 41.8222 290.57 44.3364C292.281 46.7893 294.744 48.629 297.959 49.8554C301.226 51.0206 305.193 51.6032 309.861 51.6032ZM304.338 70V0H315.928V70H304.338Z" fill="black"/>
<path d="M369.692 28.6991H395.905V40.2891H369.692V28.6991ZM370.625 55.1905H400.261V67.1485H358.102V2.75953H399.25V14.7175H370.625V55.1905Z" fill="black"/>
<path d="M440.464 68.2523C436.264 68.2523 432.349 67.4551 428.719 65.8607C425.141 64.205 422.03 61.8747 419.385 58.8699C416.74 55.8651 414.666 52.339 413.162 48.2917C411.71 44.2444 410.984 39.7985 410.984 34.954C410.984 30.1095 411.71 25.6636 413.162 21.6163C414.666 17.569 416.74 14.0429 419.385 11.0381C422.081 8.03329 425.219 5.73368 428.797 4.13929C432.375 2.48357 436.29 1.65572 440.542 1.65572C445.261 1.65572 449.513 2.63688 453.299 4.59921C457.136 6.50022 460.351 9.32107 462.944 13.0618L454.855 21.8922C452.988 19.378 450.914 17.5077 448.632 16.2812C446.35 14.9934 443.861 14.3495 441.165 14.3495C438.624 14.3495 436.29 14.8401 434.164 15.8213C432.038 16.8025 430.197 18.2129 428.641 20.0526C427.086 21.8922 425.867 24.0692 424.985 26.5834C424.156 29.0977 423.741 31.8879 423.741 34.954C423.741 38.0201 424.156 40.8103 424.985 43.3246C425.867 45.8388 427.086 48.0158 428.641 49.8554C430.197 51.6951 432.038 53.1056 434.164 54.0867C436.29 55.0679 438.624 55.5585 441.165 55.5585C443.861 55.5585 446.35 54.9452 448.632 53.7188C450.914 52.431 452.988 50.4993 454.855 47.9238L462.944 56.7543C460.351 60.495 457.136 63.3465 453.299 65.3088C449.513 67.2711 445.235 68.2523 440.464 68.2523Z" fill="black"/>
<path d="M500.043 68.2523C495.842 68.2523 491.927 67.4551 488.297 65.8607C484.719 64.205 481.608 61.8747 478.963 58.8699C476.318 55.8651 474.244 52.339 472.74 48.2917C471.288 44.2444 470.562 39.7985 470.562 34.954C470.562 30.1095 471.288 25.6636 472.74 21.6163C474.244 17.569 476.318 14.0429 478.963 11.0381C481.66 8.03329 484.797 5.73368 488.375 4.13929C491.953 2.48357 495.868 1.65572 500.12 1.65572C504.839 1.65572 509.092 2.63688 512.877 4.59921C516.714 6.50022 519.93 9.32107 522.522 13.0618L514.433 21.8922C512.566 19.378 510.492 17.5077 508.21 16.2812C505.928 14.9934 503.439 14.3495 500.743 14.3495C498.202 14.3495 495.868 14.8401 493.742 15.8213C491.616 16.8025 489.775 18.2129 488.219 20.0526C486.664 21.8922 485.445 24.0692 484.564 26.5834C483.734 29.0977 483.319 31.8879 483.319 34.954C483.319 38.0201 483.734 40.8103 484.564 43.3246C485.445 45.8388 486.664 48.0158 488.219 49.8554C489.775 51.6951 491.616 53.1056 493.742 54.0867C495.868 55.0679 498.202 55.5585 500.743 55.5585C503.439 55.5585 505.928 54.9452 508.21 53.7188C510.492 52.431 512.566 50.4993 514.433 47.9238L522.522 56.7543C519.93 60.495 516.714 63.3465 512.877 65.3088C509.092 67.2711 504.813 68.2523 500.043 68.2523Z" fill="black"/>
<path d="M535.013 67.1485V2.75953H547.537V44.7043L573.517 2.75953H585.34V67.1485H572.895V25.2957L546.915 67.1485H535.013Z" fill="black"/>
<path d="M629.233 68.2523C624.929 68.2523 620.936 67.4244 617.254 65.7687C613.624 64.113 610.461 61.7827 607.765 58.7779C605.12 55.7731 603.046 52.247 601.542 48.1997C600.09 44.1524 599.364 39.7372 599.364 34.954C599.364 30.1708 600.09 25.7556 601.542 21.7083C603.046 17.661 605.146 14.1349 607.842 11.1301C610.539 8.12527 613.702 5.795 617.332 4.13929C620.962 2.48357 624.903 1.65572 629.155 1.65572C633.459 1.65572 637.4 2.48357 640.979 4.13929C644.609 5.795 647.746 8.12527 650.391 11.1301C653.087 14.1349 655.187 17.661 656.691 21.7083C658.195 25.6943 658.947 30.1095 658.947 34.954C658.947 39.7372 658.195 44.1831 656.691 48.2917C655.187 52.339 653.087 55.8651 650.391 58.8699C647.746 61.8134 644.609 64.113 640.979 65.7687C637.4 67.4244 633.485 68.2523 629.233 68.2523ZM629.155 55.5585C631.593 55.5585 633.822 55.0679 635.845 54.0867C637.919 53.1056 639.734 51.6951 641.29 49.8554C642.845 48.0158 644.038 45.8388 644.868 43.3246C645.749 40.8103 646.19 38.0201 646.19 34.954C646.19 31.8879 645.749 29.0977 644.868 26.5834C644.038 24.0692 642.845 21.8922 641.29 20.0526C639.786 18.2129 637.997 16.8025 635.923 15.8213C633.848 14.8401 631.593 14.3495 629.155 14.3495C626.718 14.3495 624.462 14.8401 622.388 15.8213C620.366 16.8025 618.577 18.2129 617.021 20.0526C615.465 21.8922 614.247 24.0692 613.365 26.5834C612.535 29.0977 612.12 31.8879 612.12 34.954C612.12 37.9588 612.535 40.749 613.365 43.3246C614.247 45.8388 615.439 48.0158 616.943 49.8554C618.499 51.6951 620.314 53.1056 622.388 54.0867C624.462 55.0679 626.718 55.5585 629.155 55.5585Z" fill="black"/>
<path d="M710.269 2.75953H722.87V67.1485H710.269V2.75953ZM685.533 67.1485H672.932V2.75953H685.533V67.1485ZM711.202 40.749H684.6V28.1472H711.202V40.749Z" fill="black"/>
<path d="M734.645 67.1485L758.914 2.75953H771.359L795.706 67.1485H782.483L762.57 10.3022H767.548L747.557 67.1485H734.645ZM746.78 53.3509L750.124 42.0368H778.127L781.549 53.3509H746.78Z" fill="black"/>
<path d="M808.053 68.1603C807.12 68.1603 806.135 68.0683 805.097 67.8844C804.112 67.7004 803.023 67.4551 801.831 67.1485L802.608 54.5466C803.334 54.7919 804.086 54.9146 804.864 54.9146C806.99 54.9146 808.65 53.9028 809.842 51.8791C811.035 49.7941 811.891 46.82 812.409 42.9566C812.928 39.0933 813.265 34.4021 813.42 28.883L814.198 2.75953H856.046V67.1485H843.601V11.498L846.479 14.9014H822.443L825.01 11.3141L824.544 28.3311C824.388 34.6474 824.025 40.2584 823.455 45.1643C822.884 50.0701 822.003 54.24 820.81 57.6741C819.617 61.1082 817.984 63.7144 815.909 65.4928C813.835 67.2711 811.216 68.1603 808.053 68.1603Z" fill="black"/>
<path d="M900.292 23.9159C906.878 23.9159 911.96 25.6636 915.538 29.159C919.116 32.5931 920.905 37.7749 920.905 44.7043C920.905 52.0631 918.909 57.6435 914.916 61.4455C910.975 65.2475 905.504 67.1485 898.503 67.1485H873.923V2.75953H886.447V23.9159H900.292ZM897.803 56.1104C901.018 56.1104 903.559 55.1599 905.426 53.2589C907.293 51.3579 908.226 48.5983 908.226 44.9803C908.226 41.4236 907.293 38.8787 905.426 37.3456C903.611 35.7512 901.07 34.954 897.803 34.954H886.447V56.1104H897.803Z" fill="black"/>
<path d="M971.598 2.75953H984.199V67.1485H971.598V2.75953ZM946.862 67.1485H934.261V2.75953H946.862V67.1485ZM972.531 40.749H945.929V28.1472H972.531V40.749Z" fill="black"/>
<path d="M1028.49 23.9159C1035.07 23.9159 1040.16 25.6636 1043.73 29.159C1047.31 32.5931 1049.1 37.7749 1049.1 44.7043C1049.1 52.0631 1047.1 57.6435 1043.11 61.4455C1039.17 65.2475 1033.7 67.1485 1026.7 67.1485H1002.12V2.75953H1014.64V23.9159H1028.49ZM1026 56.1104C1029.21 56.1104 1031.76 55.1599 1033.62 53.2589C1035.49 51.3579 1036.42 48.5983 1036.42 44.9803C1036.42 41.4236 1035.49 38.8787 1033.62 37.3456C1031.81 35.7512 1029.27 34.954 1026 34.954H1014.64V56.1104H1026ZM1056.02 67.1485V2.75953H1068.55V67.1485H1056.02Z" fill="black"/>
<path d="M1081.64 2.75953H1096.19L1107.46 22.2602L1118.74 2.75953H1133.52L1115.4 33.5742L1135 67.1485H1120.14L1107.46 45.8081L1094.94 67.1485H1080.4L1099.84 34.2181L1081.64 2.75953Z" fill="black"/>
</g>
<defs>
<filter id="filter0_d_432_101" x="0" y="0" width="1139" height="78" filterUnits="userSpaceOnUse" color-interpolation-filters="sRGB">
<feFlood flood-opacity="0" result="BackgroundImageFix"/>
<feColorMatrix in="SourceAlpha" type="matrix" values="0 0 0 0 0 0 0 0 0 0 0 0 0 0 0 0 0 0 127 0" result="hardAlpha"/>
<feOffset dy="4"/>
<feGaussianBlur stdDeviation="2"/>
<feComposite in2="hardAlpha" operator="out"/>
<feColorMatrix type="matrix" values="0 0 0 0 0 0 0 0 0 0 0 0 0 0 0 0 0 0 0.25 0"/>
<feBlend mode="normal" in2="BackgroundImageFix" result="effect1_dropShadow_432_101"/>
<feBlend mode="normal" in="SourceGraphic" in2="effect1_dropShadow_432_101" result="shape"/>
</filter>
</defs>
</svg>
