<svg width="575" height="71" viewBox="0 0 575 71" fill="none" xmlns="http://www.w3.org/2000/svg" preserveAspectRatio="none">
    <path d="M0.953125 69.6425V0.985352H63.6526V69.6425H47.8303V10.3031L51.4665 13.9321H13.1392L16.7754 10.3031V69.6425H0.953125Z" fill="black"/>
    <path d="M86.1108 69.6425V0.985352H115.888C122.047 0.985352 127.354 1.99886 131.809 4.02588C136.264 5.98752 139.703 8.83189 142.128 12.559C144.552 16.2861 145.764 20.7325 145.764 25.8981C145.764 30.9983 144.552 35.412 142.128 39.1391C139.703 42.8662 136.264 45.7433 131.809 47.7703C127.354 49.7319 122.047 50.7128 115.888 50.7128H94.9555L102.031 43.5528V69.6425H86.1108ZM102.031 45.3183L94.9555 37.766H115.004C119.917 37.766 123.586 36.7198 126.01 34.6274C128.435 32.535 129.647 29.6252 129.647 25.8981C129.647 22.1056 128.435 19.1632 126.01 17.0707C123.586 14.9783 119.917 13.9321 115.004 13.9321H94.9555L102.031 6.37984V45.3183Z" fill="black"/>
    <path d="M161.671 69.6425V0.985352H177.494V45.7106L210.317 0.985352H225.255V69.6425H209.531V25.0154L176.707 69.6425H161.671Z" fill="black"/>
    <path d="M247.789 69.6425V0.985352H303.314V13.6379H263.611V27.7616H282.676C290.997 27.7616 297.319 29.4944 301.643 32.96C306.033 36.4255 308.228 41.4604 308.228 48.0646C308.228 54.8649 305.804 60.1613 300.955 63.9538C296.107 67.7463 289.261 69.6425 280.416 69.6425H247.789ZM263.611 57.8727H279.531C283.593 57.8727 286.706 57.0881 288.868 55.5188C291.03 53.8841 292.111 51.5301 292.111 48.4569C292.111 42.4412 287.918 39.4334 279.531 39.4334H263.611V57.8727Z" fill="black"/>
    <path d="M359.064 23.5441C367.384 23.5441 373.805 25.4077 378.326 29.1348C382.846 32.7965 385.107 38.3218 385.107 45.7106C385.107 53.5571 382.584 59.5074 377.539 63.5615C372.56 67.6155 365.648 69.6425 356.803 69.6425H325.748V0.985352H341.571V23.5441H359.064ZM355.919 57.8727C359.981 57.8727 363.191 56.8592 365.55 54.8322C367.908 52.8052 369.088 49.8627 369.088 46.0048C369.088 42.2123 367.908 39.4988 365.55 37.8641C363.257 36.164 360.046 35.3139 355.919 35.3139H341.571V57.8727H355.919ZM393.853 69.6425V0.985352H409.675V69.6425H393.853Z" fill="black"/>
    <path d="M432.42 70.7214C431.241 70.7214 429.996 70.6233 428.685 70.4272C427.441 70.231 426.065 69.9695 424.558 69.6425L425.541 56.2053C426.458 56.4669 427.408 56.5977 428.391 56.5977C431.077 56.5977 433.173 55.5188 434.68 53.361C436.187 51.1378 437.268 47.9665 437.923 43.847C438.578 39.7276 439.004 34.7254 439.201 28.8405L440.184 0.985352H493.056V69.6425H477.332V10.3031L480.968 13.9321H450.601L453.844 10.1069L453.254 28.2521C453.058 34.987 452.599 40.97 451.878 46.201C451.158 51.432 450.044 55.8784 448.537 59.5401C447.03 63.2018 444.966 65.9808 442.346 67.877C439.725 69.7733 436.416 70.7214 432.42 70.7214Z" fill="black"/>
    <path d="M548.957 23.5441C557.278 23.5441 563.698 25.4077 568.219 29.1348C572.74 32.7965 575 38.3218 575 45.7106C575 53.5571 572.478 59.5074 567.433 63.5615C562.454 67.6155 555.542 69.6425 546.697 69.6425H515.642V0.985352H531.464V23.5441H548.957ZM545.812 57.8727C549.874 57.8727 553.085 56.8592 555.443 54.8322C557.802 52.8052 558.981 49.8627 558.981 46.0048C558.981 42.2123 557.802 39.4988 555.443 37.8641C553.15 36.164 549.94 35.3139 545.812 35.3139H531.464V57.8727H545.812Z" fill="black"/>
</svg>
