<svg width="977" height="115" viewBox="0 0 977 115" fill="none" xmlns="http://www.w3.org/2000/svg" preserveAspectRatio="none">
    <path d="M0 110.641V0.778814H45.4204C54.8143 0.778814 62.909 2.40059 69.7046 5.64416C76.5001 8.78309 81.7467 13.3345 85.4443 19.2985C89.1419 25.2625 90.9907 32.3774 90.9907 40.6432C90.9907 48.8045 89.1419 55.8671 85.4443 61.831C81.7467 67.795 76.5001 72.3987 69.7046 75.6423C62.909 78.7812 54.8143 80.3507 45.4204 80.3507H13.4912L24.2842 68.8936V110.641H0ZM24.2842 71.7187L13.4912 59.6338H44.0713C51.5664 59.6338 57.1627 57.9597 60.8603 54.6115C64.5579 51.2633 66.4067 46.6072 66.4067 40.6432C66.4067 34.5746 64.5579 29.8662 60.8603 26.518C57.1627 23.1699 51.5664 21.4958 44.0713 21.4958H13.4912L24.2842 9.41087V71.7187Z" fill="black"/>
    <path d="M137.59 45.0377H188.107V64.813H137.59V45.0377ZM139.389 90.2383H196.502V110.641H115.255V0.778814H194.553V21.1819H139.389V90.2383Z" fill="black"/>
    <path d="M214.908 102.543L222.403 84.3371C226.9 87.1621 231.697 89.3594 236.793 90.9289C241.99 92.3937 247.037 93.2307 251.934 93.44C256.93 93.5446 261.427 93.0215 265.425 91.8705C269.522 90.7196 272.77 88.9932 275.168 86.6913C277.667 84.3894 278.916 81.4598 278.916 77.9023C278.916 73.7171 277.267 70.6304 273.969 68.6424C270.671 66.5498 266.274 65.5035 260.778 65.5035H235.145V46.356H258.979C263.876 46.356 267.673 45.3097 270.372 43.2171C273.17 41.1245 274.569 38.2471 274.569 34.585C274.569 31.4461 273.569 28.935 271.571 27.0516C269.572 25.0636 266.824 23.5988 263.326 22.6571C259.928 21.7154 256.081 21.2969 251.784 21.4015C247.487 21.5062 243.039 22.2386 238.442 23.5988C233.845 24.959 229.448 26.8423 225.251 29.2489L217.906 9.63054C224.701 5.96846 231.847 3.45732 239.342 2.09711C246.937 0.63228 254.232 0.266071 261.228 0.998485C268.323 1.62628 274.719 3.30037 280.415 6.02077C286.111 8.63655 290.658 12.0894 294.056 16.3793C297.454 20.6691 299.153 25.7437 299.153 31.6031C299.153 36.8346 297.854 41.4907 295.255 45.5713C292.657 49.6519 289.009 52.7909 284.312 54.9881C279.715 57.1854 274.419 58.284 268.423 58.284L269.022 52.6339C276.018 52.6339 282.064 53.8895 287.161 56.4006C292.357 58.8071 296.355 62.2076 299.153 66.6021C302.051 70.892 303.5 75.862 303.5 81.5121C303.5 86.7436 302.151 91.452 299.453 95.6373C296.854 99.7179 293.257 103.171 288.66 105.996C284.063 108.821 278.816 110.913 272.92 112.274C267.024 113.634 260.728 114.209 254.032 114C247.437 113.791 240.791 112.797 234.095 111.018C227.4 109.135 221.004 106.31 214.908 102.543Z" fill="black"/>
    <path d="M333.113 89.9245C338.91 91.7032 343.756 92.2263 347.654 91.4939C351.651 90.6569 355.199 87.7272 358.297 82.7049L363.394 74.7006L365.642 72.0325L400.419 0.778814H424.254L379.583 87.7272C375.586 95.5745 370.839 101.591 365.342 105.776C359.946 109.961 354 112.315 347.504 112.839C341.008 113.466 334.263 112.263 327.267 109.229L333.113 89.9245ZM365.192 93.2203L317.823 0.778814H343.756L378.534 74.5437L365.192 93.2203Z" fill="black"/>
    <path d="M443.331 112.368C441.533 112.368 439.634 112.211 437.635 111.897C435.736 111.583 433.638 111.165 431.339 110.641L432.838 89.1397C434.237 89.5582 435.686 89.7675 437.185 89.7675C441.283 89.7675 444.481 88.0411 446.779 84.5883C449.078 81.0308 450.727 75.9562 451.726 69.3644C452.725 62.7727 453.375 54.7684 453.675 45.3516L455.174 0.778814H535.821V110.641H511.837V15.6887L517.383 21.4958H471.063L476.01 15.3748L475.111 44.41C474.811 55.187 474.111 64.7607 473.012 73.1312C471.913 81.5017 470.214 88.6166 467.915 94.4759C465.617 100.335 462.469 104.782 458.471 107.816C454.474 110.851 449.427 112.368 443.331 112.368Z" fill="black"/>
    <path d="M621.09 36.8765C633.782 36.8765 643.575 39.8585 650.471 45.8225C657.366 51.6818 660.814 60.5231 660.814 72.3464C660.814 84.9022 656.966 94.4236 649.271 100.911C641.676 107.398 631.133 110.641 617.642 110.641H570.273V0.778814H594.407V36.8765H621.09ZM616.293 91.8078C622.489 91.8078 627.386 90.186 630.983 86.9425C634.581 83.6989 636.38 78.9905 636.38 72.8173C636.38 66.7487 634.581 62.4065 630.983 59.7907C627.486 57.0703 622.589 55.7101 616.293 55.7101H594.407V91.8078H616.293Z" fill="black"/>
    <path d="M698.209 110.641V15.6887L703.755 21.4958H664.78V0.778814H755.771V21.4958H716.797L722.193 15.6887V110.641H698.209Z" fill="black"/>
    <path d="M762.151 110.641L808.921 0.778814H832.905L879.825 110.641H854.341L815.966 13.6484H825.56L787.035 110.641H762.151ZM785.536 87.0994L791.982 67.795H845.947L852.542 87.0994H785.536Z" fill="black"/>
    <path d="M919.35 110.641V15.6887L924.896 21.4958H885.921V0.778814H976.912V21.4958H937.938L943.334 15.6887V110.641H919.35Z" fill="black"/>
</svg>
