<svg width="977" height="86" viewBox="0 0 977 86" fill="none" xmlns="http://www.w3.org/2000/svg" preserveAspectRatio="none">
    <path d="M0 71.2V1.2H12.8845L41.538 50.6H34.7112L62.8839 1.2H75.7684L75.8645 71.2H61.2493L61.1532 24.5H63.9416L41.3457 63.8H34.4227L11.346 24.5H14.6152V71.2H0Z" fill="black"/>
    <path d="M130.469 24.2C138.61 24.2 144.892 26.1 149.315 29.9C153.738 33.6333 155.949 39.2667 155.949 46.8C155.949 54.8 153.481 60.8667 148.546 65C143.674 69.1333 136.911 71.2 128.257 71.2H97.873V1.2H113.354V24.2H130.469ZM127.392 59.2C131.366 59.2 134.507 58.1667 136.815 56.1C139.123 54.0333 140.276 51.0333 140.276 47.1C140.276 43.2333 139.123 40.4667 136.815 38.8C134.571 37.0667 131.43 36.2 127.392 36.2H113.354V59.2H127.392ZM164.507 71.2V1.2H179.987V71.2H164.507Z" fill="black"/>
    <path d="M280.71 1.2H296.286V71.2H280.71V1.2ZM250.133 71.2H234.556V1.2H250.133V71.2ZM281.864 42.5H248.979V28.8H281.864V42.5Z" fill="black"/>
    <path d="M332.765 29.4H365.169V42H332.765V29.4ZM333.919 58.2H370.553V71.2H318.438V1.2H369.303V14.2H333.919V58.2Z" fill="black"/>
    <path d="M420.943 71.2V1.2H482.288V71.2H466.807V10.7L470.365 14.4H432.866L436.423 10.7V71.2H420.943Z" fill="black"/>
    <path d="M504.261 71.2V1.2H533.395C539.421 1.2 544.613 2.23333 548.972 4.3C553.331 6.3 556.696 9.2 559.068 13C561.44 16.8 562.626 21.3333 562.626 26.6C562.626 31.8 561.44 36.3 559.068 40.1C556.696 43.9 553.331 46.8333 548.972 48.9C544.613 50.9 539.421 51.9 533.395 51.9H512.915L519.838 44.6V71.2H504.261ZM519.838 46.4L512.915 38.7H532.53C537.338 38.7 540.927 37.6333 543.299 35.5C545.671 33.3667 546.857 30.4 546.857 26.6C546.857 22.7333 545.671 19.7333 543.299 17.6C540.927 15.4667 537.338 14.4 532.53 14.4H512.915L519.838 6.7V46.4Z" fill="black"/>
    <path d="M611.34 72.4C606.02 72.4 601.084 71.5 596.533 69.7C592.045 67.9 588.135 65.3667 584.802 62.1C581.533 58.8333 578.969 55 577.11 50.6C575.315 46.2 574.417 41.4 574.417 36.2C574.417 31 575.315 26.2 577.11 21.8C578.969 17.4 581.565 13.5667 584.898 10.3C588.231 7.03333 592.142 4.5 596.629 2.7C601.116 0.899998 605.988 0 611.244 0C616.564 0 621.436 0.899998 625.859 2.7C630.346 4.5 634.224 7.03333 637.494 10.3C640.827 13.5667 643.423 17.4 645.282 21.8C647.141 26.1333 648.07 30.9333 648.07 36.2C648.07 41.4 647.141 46.2333 645.282 50.7C643.423 55.1 640.827 58.9333 637.494 62.2C634.224 65.4 630.346 67.9 625.859 69.7C621.436 71.5 616.596 72.4 611.34 72.4ZM611.244 58.6C614.257 58.6 617.013 58.0667 619.513 57C622.077 55.9333 624.321 54.4 626.244 52.4C628.167 50.4 629.641 48.0333 630.667 45.3C631.756 42.5667 632.301 39.5333 632.301 36.2C632.301 32.8667 631.756 29.8333 630.667 27.1C629.641 24.3667 628.167 22 626.244 20C624.385 18 622.173 16.4667 619.609 15.4C617.045 14.3333 614.257 13.8 611.244 13.8C608.231 13.8 605.443 14.3333 602.879 15.4C600.379 16.4667 598.167 18 596.244 20C594.321 22 592.815 24.3667 591.725 27.1C590.699 29.8333 590.186 32.8667 590.186 36.2C590.186 39.4667 590.699 42.5 591.725 45.3C592.815 48.0333 594.289 50.4 596.148 52.4C598.071 54.4 600.315 55.9333 602.879 57C605.443 58.0667 608.231 58.6 611.244 58.6Z" fill="black"/>
    <path d="M708.095 64V14.4H685.019L684.73 24.6C684.538 28.9333 684.249 33.0333 683.865 36.9C683.544 40.7667 683.031 44.3 682.326 47.5C681.621 50.6333 680.692 53.3 679.538 55.5C678.448 57.7 677.07 59.2667 675.403 60.2L658.769 58C661.077 58.0667 662.968 57.2333 664.442 55.5C665.98 53.7667 667.198 51.3333 668.096 48.2C668.993 45 669.634 41.2667 670.019 37C670.467 32.7333 670.788 28.1 670.98 23.1L671.75 1.2H723.48V64H708.095ZM656.557 85.7L656.654 58H732.903V85.7H718.48V71.2H670.98V85.7H656.557Z" fill="black"/>
    <path d="M741.457 71.2L771.456 1.2H786.841L816.936 71.2H800.59L775.975 9.4H782.129L757.418 71.2H741.457ZM756.456 56.2L760.591 43.9H795.206L799.437 56.2H756.456Z" fill="black"/>
    <path d="M845.477 29.4H877.881V42H845.477V29.4ZM846.631 58.2H883.265V71.2H831.151V1.2H882.015V14.2H846.631V58.2Z" fill="black"/>
    <path d="M901.135 71.2V1.2H914.02L942.674 50.6H935.847L964.019 1.2H976.904L977 71.2H962.385L962.289 24.5H965.077L942.481 63.8H935.558L912.482 24.5H915.751V71.2H901.135Z" fill="black"/>
</svg>
