<svg width="977" height="85" viewBox="0 0 977 85" fill="none" xmlns="http://www.w3.org/2000/svg" preserveAspectRatio="none">
    <path d="M0 79.2269V1.33528H68.4415V79.2269H51.1702V3.72548L55.1394 7.84261H13.3021L17.2713 3.72548V79.2269H0Z" fill="black"/>
    <path d="M128.893 80.5622C122.958 80.5622 117.451 79.5608 112.373 77.5578C107.367 75.5549 103.004 72.736 99.2856 69.101C95.6382 65.4661 92.7775 61.2006 90.7036 56.3045C88.7011 51.4085 87.6999 46.0673 87.6999 40.2811C87.6999 34.4949 88.7011 29.1537 90.7036 24.2577C92.7775 19.3616 95.674 15.0961 99.3928 11.4612C103.112 7.82625 107.474 5.00732 112.48 3.00439C117.487 1.00146 122.922 0 128.786 0C134.722 0 140.157 1.00146 145.092 3.00439C150.098 5.00732 154.425 7.82625 158.072 11.4612C161.791 15.0961 164.688 19.3616 166.762 24.2577C168.836 29.0795 169.873 34.4207 169.873 40.2811C169.873 46.0673 168.836 51.4456 166.762 56.4158C164.688 61.3119 161.791 65.5774 158.072 69.2123C154.425 72.7731 150.098 75.5549 145.092 77.5578C140.157 79.5608 134.758 80.5622 128.893 80.5622ZM128.786 74.3149C132.148 74.3149 135.223 73.7215 138.012 72.5346C140.873 71.3476 144.376 64.6414 146.521 62.416C148.667 60.1905 149.312 53.4485 150.456 50.407C151.672 47.3655 152.279 43.9902 152.279 40.2811C152.279 36.572 151.672 33.1967 150.456 30.1552C149.312 27.1137 148.667 20.3717 146.521 18.1463C144.447 15.9208 140.98 8.21459 138.119 7.02767C135.258 5.84075 132.148 5.24729 128.786 5.24729C125.425 5.24729 122.314 5.84075 119.453 7.02767C116.664 8.21459 112.197 15.9208 110.051 18.1463C107.906 20.3717 108.225 27.1137 107.009 30.1552C105.865 33.1967 105.293 36.572 105.293 40.2811C105.293 43.916 104.865 47.2914 106.009 50.407C107.225 53.4485 107.87 60.1905 109.944 62.416C112.09 64.6414 116.593 71.3476 119.453 72.5346C122.314 73.7215 125.425 74.3149 128.786 74.3149Z" fill="black"/>
    <path d="M236.841 76.3237V6.87877H211.095L210.773 27.3733C210.558 32.1952 210.236 36.7574 209.807 41.06C209.45 45.3626 208.878 49.2943 208.091 52.855C207.304 56.3416 206.267 59.3089 204.98 61.757C203.764 64.205 202.227 73.1291 200.367 74.1676L181.809 71.7196C184.383 71.7938 186.493 63.6857 188.138 61.757C189.854 59.8282 191.213 57.1205 192.214 53.634C193.216 50.0732 193.931 45.919 194.36 41.1713C194.86 36.4236 195.218 31.2679 195.433 25.7042L196.291 1.33528H254.005V76.3237H236.841ZM179.341 85L179.449 71.7196H264.518V85H248.426V79.2269H195.433V85H179.341Z" fill="black"/>
    <path d="M282.117 79.2269V1.33528H350.558V79.2269H333.287V2.76165L337.256 6.87877H295.419L299.388 2.76165V79.2269H282.117Z" fill="black"/>
    <path d="M375.073 79.2269V1.33528H392.344V52.0761L428.174 1.33528H444.48V79.2269H427.316V28.5974L391.486 79.2269H375.073Z" fill="black"/>
    <path d="M504.585 80.5622C498.792 80.5622 493.393 79.5979 488.386 77.6691C483.452 75.6662 479.161 72.8472 475.513 69.2123C471.866 65.5774 469.005 61.3119 466.931 56.4158C464.929 51.5198 463.928 46.1415 463.928 40.2811C463.928 34.4207 464.929 29.0425 466.931 24.1464C469.005 19.2504 471.866 14.9849 475.513 11.3499C479.232 7.71498 483.559 4.93313 488.494 3.00439C493.428 1.00146 498.828 0 504.692 0C511.2 0 517.065 1.18692 522.285 3.56076C527.578 5.86042 532.012 9.27281 535.588 13.798L526.431 20.4802C523.856 17.4387 518.996 12.0677 515.849 10.584C512.702 9.02621 509.269 8.24729 505.55 8.24729C502.046 8.24729 498.828 8.84075 495.896 10.0277C492.964 11.2146 489.425 18.0293 487.279 20.2548C485.134 22.4802 484.453 27.1137 483.237 30.1552C482.093 33.1967 481.521 36.572 481.521 40.2811C481.521 43.9902 482.093 47.3655 483.237 50.407C484.453 53.4485 484.134 58.082 486.279 60.3075C488.425 62.5329 492.964 69.3476 495.896 70.5346C498.828 71.7215 502.046 72.3149 505.55 72.3149C509.269 72.3149 512.702 71.5731 515.849 70.0895C518.996 68.5316 523.856 61.0864 526.431 57.9707L535.588 66.653C532.012 71.1781 527.578 74.6276 522.285 77.0014C517.065 79.3753 511.164 80.5622 504.585 80.5622Z" fill="black"/>
    <path d="M599.277 50.1845C595.558 51.7423 591.982 50.8569 588.55 51.6729C585.117 52.4147 581.827 52.7857 578.68 52.7857C568.596 52.7857 560.873 50.3005 555.509 45.3303C550.145 40.2859 547.463 35.1254 547.463 25.7042V1.33528H564.627V23.7013C564.627 29.0425 566.022 37.2301 568.811 39.9748C571.6 42.6454 575.569 43.9807 580.718 43.9807C584.008 43.9807 587.191 43.6098 590.266 42.8679C593.341 42.0519 596.202 40.9021 598.848 39.4184L599.277 50.1845ZM596.81 79.2269V1.33528H613.974V79.2269H596.81Z" fill="black"/>
    <path d="M638.542 79.2269V1.33528H655.813V52.0761L691.643 1.33528H707.949V79.2269H690.785V28.5974L654.955 79.2269H638.542Z" fill="black"/>
    <path d="M781.142 79.2269L757.756 41.7277L771.809 37.0455L800.88 79.2269H781.142ZM732.332 79.2269V1.33528H749.603V79.2269H732.332ZM744.561 42.7392V36.9343H770.736V42.7392H744.561ZM773.418 42.284L757.434 40.2811L781.785 1.33528H800.129L773.418 42.284Z" fill="black"/>
    <path d="M850.545 80.5622C844.609 80.5622 839.102 79.5608 834.024 77.5578C829.018 75.5549 824.655 72.736 820.937 69.101C817.289 65.4661 814.429 61.2006 812.355 56.3045C810.352 51.4085 809.351 46.0673 809.351 40.2811C809.351 34.4949 810.352 29.1537 812.355 24.2577C814.429 19.3616 817.325 15.0961 821.044 11.4612C824.763 7.82625 829.125 5.00732 834.131 3.00439C839.138 1.00146 844.573 0 850.437 0C856.373 0 861.808 1.00146 866.743 3.00439C871.749 5.00732 876.076 7.82625 879.723 11.4612C883.442 15.0961 886.339 19.3616 888.413 24.2577C890.487 29.0795 891.524 34.4207 891.524 40.2811C891.524 46.0673 890.487 51.4456 888.413 56.4158C886.339 61.3119 883.442 65.5774 879.723 69.2123C876.076 72.7731 871.749 75.5549 866.743 77.5578C861.808 79.5608 856.409 80.5622 850.545 80.5622ZM850.437 72.3149C853.798 72.3149 856.874 71.7215 859.663 70.5346C862.524 69.3476 867.027 62.5329 869.172 60.3075C871.318 58.082 870.962 53.4485 872.107 50.407C873.323 47.3655 873.93 43.9902 873.93 40.2811C873.93 36.572 873.323 33.1967 872.107 30.1552C870.962 27.1137 870.318 21.4802 868.172 19.2548C866.098 17.0293 862.631 10.2146 859.77 9.02767C856.909 7.84075 853.798 7.24729 850.437 7.24729C847.076 7.24729 843.965 7.84075 841.104 9.02767C838.315 10.2146 833.848 18.0293 831.702 20.2548C829.557 22.4802 829.876 27.1137 828.66 30.1552C827.516 33.1967 826.944 36.572 826.944 40.2811C826.944 43.916 827.516 47.2914 828.66 50.407C829.876 53.4485 830.521 59.082 832.595 61.3075C834.741 63.5329 838.244 69.3476 841.104 70.5346C843.965 71.7215 847.076 72.3149 850.437 72.3149Z" fill="black"/>
    <path d="M910.811 79.2269V1.33528H945.783C954.508 1.33528 961.302 3.07857 966.165 6.56515C971.028 10.0517 973.46 15.022 973.46 21.4758C973.46 27.8555 971.171 32.8258 966.594 36.3865C962.017 39.8731 955.938 41.6164 948.358 41.6164L950.396 36.9429C958.835 36.9429 965.379 38.6862 970.027 42.1728C974.676 45.6593 977 50.7038 977 57.306C977 64.1308 974.497 69.509 969.491 73.4407C964.556 77.2982 957.333 79.2269 947.821 79.2269H910.811ZM928.083 70.9826H947.177C951.182 70.9826 954.222 70.1666 956.296 68.5346C958.37 66.9025 960.407 60.2718 960.407 56.8594C960.407 53.5954 958.37 50.1845 956.296 48.6266C954.222 46.9946 951.182 46.1786 947.177 46.1786H928.083V70.9826ZM928.083 33.6047H944.281C948.072 33.6047 950.932 32.8258 952.863 31.2679C954.794 29.6359 956.76 25.2621 956.76 22.1464C956.76 19.0307 954.794 12.5855 952.863 11.0277C950.932 9.39566 948.072 8.57965 944.281 8.57965H928.083V33.6047Z" fill="black"/>
</svg>
