<svg width="1139" height="122" viewBox="0 0 1139 122" fill="none" xmlns="http://www.w3.org/2000/svg" preserveAspectRatio="none">
<g filter="url(#filter0_d_432_103)">
<path d="M4 98.1515V21.6414H34.1845C41.7152 21.6414 47.5793 23.3538 51.7767 26.7785C55.9741 30.2033 58.0728 35.0853 58.0728 41.4247C58.0728 47.6913 56.0976 52.5733 52.1471 56.0709C48.1965 59.4957 42.9497 61.2081 36.4067 61.2081L38.1659 56.6175C45.4497 56.6175 51.0977 58.3298 55.11 61.7546C59.1222 65.1793 61.1283 70.1342 61.1283 76.6194C61.1283 83.3231 58.9679 88.6059 54.647 92.4679C50.3878 96.257 44.1534 98.1515 35.9437 98.1515H4ZM18.9071 85.0355H35.3882C38.8449 85.0355 41.4683 84.2339 43.2584 82.6309C45.0485 81.0278 45.9435 78.5503 45.9435 75.1985C45.9435 71.9923 45.0485 69.6242 43.2584 68.094C41.4683 66.4909 38.8449 65.6894 35.3882 65.6894H18.9071V85.0355ZM18.9071 53.3384H32.8882C36.1598 53.3384 38.6288 52.5733 40.2955 51.0431C41.9621 49.4401 42.7954 47.1083 42.7954 44.0479C42.7954 40.9875 41.9621 38.6922 40.2955 37.162C38.6288 35.559 36.1598 34.7574 32.8882 34.7574H18.9071V53.3384Z" fill="black"/>
<path d="M109.471 46.7804C117.311 46.7804 123.36 48.8571 127.619 53.0105C131.878 57.0911 134.008 63.2483 134.008 71.4823C134.008 80.2263 131.631 86.8571 126.878 91.3749C122.187 95.8926 115.675 98.1515 107.342 98.1515H78.0832V21.6414H92.9903V46.7804H109.471ZM106.509 85.0355C110.336 85.0355 113.36 83.906 115.582 81.6472C117.805 79.3883 118.916 76.1093 118.916 71.8102C118.916 67.5839 117.805 64.5599 115.582 62.7383C113.422 60.8437 110.397 59.8965 106.509 59.8965H92.9903V85.0355H106.509ZM142.248 98.1515V21.6414H157.156V98.1515H142.248Z" fill="black"/>
<path d="M178.388 98.1515V21.6414H224.128L224.036 36.069H189.777L193.203 32.0249L193.295 98.1515H178.388Z" fill="black"/>
<path d="M262.783 99.4631C257.66 99.4631 252.907 98.4794 248.524 96.512C244.203 94.5446 240.438 91.7757 237.228 88.2052C234.08 84.6347 231.611 80.4449 229.821 75.6357C228.093 70.8265 227.228 65.5801 227.228 59.8965C227.228 54.2128 228.093 48.9664 229.821 44.1572C231.611 39.348 234.111 35.1582 237.321 31.5877C240.531 28.0173 244.296 25.2483 248.617 23.2809C252.938 21.3135 257.629 20.3298 262.691 20.3298C267.814 20.3298 272.505 21.3135 276.764 23.2809C281.085 25.2483 284.82 28.0173 287.968 31.5877C291.178 35.1582 293.678 39.348 295.468 44.1572C297.258 48.8936 298.153 54.14 298.153 59.8965C298.153 65.5801 297.258 70.8629 295.468 75.745C293.678 80.5542 291.178 84.744 287.968 88.3145C284.82 91.8121 281.085 94.5446 276.764 96.512C272.505 98.4794 267.845 99.4631 262.783 99.4631ZM262.691 84.3797C265.592 84.3797 268.246 83.7967 270.653 82.6309C273.122 81.465 275.283 79.7891 277.135 77.6031C278.987 75.4171 280.406 72.8303 281.394 69.8428C282.443 66.8552 282.968 63.5398 282.968 59.8965C282.968 56.2531 282.443 52.9377 281.394 49.9501C280.406 46.9626 278.987 44.3758 277.135 42.1898C275.345 40.0038 273.215 38.3279 270.746 37.162C268.277 35.9962 265.592 35.4132 262.691 35.4132C259.789 35.4132 257.104 35.9962 254.635 37.162C252.228 38.3279 250.098 40.0038 248.246 42.1898C246.395 44.3758 244.944 46.9626 243.895 49.9501C242.907 52.9377 242.413 56.2531 242.413 59.8965C242.413 63.4669 242.907 66.7824 243.895 69.8428C244.944 72.8303 246.364 75.4171 248.154 77.6031C250.006 79.7891 252.166 81.465 254.635 82.6309C257.104 83.7967 259.789 84.3797 262.691 84.3797Z" fill="black"/>
<path d="M355.954 90.2819V36.069H333.732L333.454 47.2176C333.269 51.954 332.991 56.4353 332.621 60.6616C332.312 64.8878 331.819 68.7498 331.14 72.2474C330.461 75.6721 329.565 78.5868 328.454 80.9914C327.405 83.396 326.078 85.1083 324.473 86.1285L308.455 83.7239C310.677 83.7967 312.498 82.8859 313.918 80.9914C315.399 79.0968 316.572 76.4372 317.436 73.0125C318.3 69.5149 318.918 65.4343 319.288 60.7709C319.72 56.1074 320.029 51.0431 320.214 45.5781L320.955 21.6414H370.768V90.2819H355.954ZM306.325 114L306.418 83.7239H379.842V114H365.954V98.1515H320.214V114H306.325Z" fill="black"/>
<path d="M439.475 21.6414H454.475V98.1515H439.475V21.6414ZM410.032 98.1515H395.032V21.6414H410.032V98.1515ZM440.587 66.7824H408.921V51.8082H440.587V66.7824Z" fill="black"/>
<path d="M507.195 46.7804C515.034 46.7804 521.083 48.8571 525.342 53.0105C529.602 57.0911 531.731 63.2483 531.731 71.4823C531.731 80.2263 529.355 86.8571 524.602 91.3749C519.91 95.8926 513.398 98.1515 505.065 98.1515H475.806V21.6414H490.713V46.7804H507.195ZM504.232 85.0355C508.059 85.0355 511.083 83.906 513.306 81.6472C515.528 79.3883 516.639 76.1093 516.639 71.8102C516.639 67.5839 515.528 64.5599 513.306 62.7383C511.145 60.8437 508.12 59.8965 504.232 59.8965H490.713V85.0355H504.232ZM539.972 98.1515V21.6414H554.879V98.1515H539.972Z" fill="black"/>
<path d="M576.112 98.1515V21.6414H591.019V71.4823L621.944 21.6414H636.018V98.1515H621.203V48.4199L590.278 98.1515H576.112ZM606.018 16.7229C599.846 16.7229 595.309 15.2656 592.407 12.3509C589.568 9.43624 588.117 5.31927 588.056 0H598.333C598.395 2.6232 599.043 4.62704 600.278 6.01151C601.574 7.32311 603.487 7.97891 606.018 7.97891C608.487 7.97891 610.37 7.32311 611.666 6.01151C612.963 4.62704 613.642 2.6232 613.703 0H623.981C623.919 5.31927 622.438 9.43624 619.536 12.3509C616.635 15.2656 612.129 16.7229 606.018 16.7229Z" fill="black"/>
<path d="M719.209 99.4631C714.21 99.4631 709.549 98.5158 705.228 96.6213C700.969 94.6539 697.266 91.8849 694.117 88.3145C690.969 84.744 688.5 80.5542 686.71 75.745C684.982 70.9358 684.118 65.6529 684.118 59.8965C684.118 54.14 684.982 48.8571 686.71 44.0479C688.5 39.2387 690.969 35.0489 694.117 31.4784C697.327 27.908 701.062 25.1755 705.321 23.2809C709.58 21.3135 714.24 20.3298 719.302 20.3298C724.919 20.3298 729.981 21.4957 734.487 23.8274C739.055 26.0863 742.882 29.4382 745.968 33.883L736.339 44.3758C734.116 41.3883 731.647 39.1659 728.931 37.7085C726.215 36.1783 723.253 35.4132 720.043 35.4132C717.018 35.4132 714.24 35.9962 711.71 37.162C709.179 38.3279 706.987 40.0038 705.136 42.1898C703.284 44.3758 701.833 46.9626 700.784 49.9501C699.796 52.9377 699.302 56.2531 699.302 59.8965C699.302 63.5398 699.796 66.8552 700.784 69.8428C701.833 72.8303 703.284 75.4171 705.136 77.6031C706.987 79.7891 709.179 81.465 711.71 82.6309C714.24 83.7967 717.018 84.3797 720.043 84.3797C723.253 84.3797 726.215 83.651 728.931 82.1937C731.647 80.6635 734.116 78.3682 736.339 75.3078L745.968 85.8006C742.882 90.2454 739.055 93.6337 734.487 95.9655C729.981 98.2972 724.888 99.4631 719.209 99.4631Z" fill="black"/>
<path d="M760.837 98.1515V21.6414H819.91V98.1515H805.003V32.0249L808.428 36.069H772.318L775.744 32.0249V98.1515H760.837Z" fill="black"/>
<path d="M872.086 99.4631C866.963 99.4631 862.21 98.4794 857.828 96.512C853.507 94.5446 849.741 91.7757 846.531 88.2052C843.383 84.6347 840.914 80.4449 839.124 75.6357C837.396 70.8265 836.532 65.5801 836.532 59.8965C836.532 54.2128 837.396 48.9664 839.124 44.1572C840.914 39.348 843.414 35.1582 846.624 31.5877C849.834 28.0173 853.599 25.2483 857.92 23.2809C862.241 21.3135 866.932 20.3298 871.994 20.3298C877.117 20.3298 881.808 21.3135 886.068 23.2809C890.388 25.2483 894.123 28.0173 897.271 31.5877C900.481 35.1582 902.981 39.348 904.771 44.1572C906.561 48.8936 907.456 54.14 907.456 59.8965C907.456 65.5801 906.561 70.8629 904.771 75.745C902.981 80.5542 900.481 84.744 897.271 88.3145C894.123 91.8121 890.388 94.5446 886.068 96.512C881.808 98.4794 877.148 99.4631 872.086 99.4631ZM871.994 84.3797C874.895 84.3797 877.549 83.7967 879.957 82.6309C882.426 81.465 884.586 79.7891 886.438 77.6031C888.29 75.4171 889.709 72.8303 890.697 69.8428C891.746 66.8552 892.271 63.5398 892.271 59.8965C892.271 56.2531 891.746 52.9377 890.697 49.9501C889.709 46.9626 888.29 44.3758 886.438 42.1898C884.648 40.0038 882.518 38.3279 880.049 37.162C877.58 35.9962 874.895 35.4132 871.994 35.4132C869.093 35.4132 866.408 35.9962 863.938 37.162C861.531 38.3279 859.402 40.0038 857.55 42.1898C855.698 44.3758 854.247 46.9626 853.198 49.9501C852.21 52.9377 851.717 56.2531 851.717 59.8965C851.717 63.4669 852.21 66.7824 853.198 69.8428C854.247 72.8303 855.667 75.4171 857.457 77.6031C859.309 79.7891 861.469 81.465 863.938 82.6309C866.408 83.7967 869.093 84.3797 871.994 84.3797Z" fill="black"/>
<path d="M954.751 99.4631C949.751 99.4631 945.091 98.5158 940.77 96.6213C936.511 94.6539 932.807 91.8849 929.659 88.3145C926.511 84.744 924.042 80.5542 922.252 75.745C920.523 70.9358 919.659 65.6529 919.659 59.8965C919.659 54.14 920.523 48.8571 922.252 44.0479C924.042 39.2387 926.511 35.0489 929.659 31.4784C932.869 27.908 936.603 25.1755 940.862 23.2809C945.122 21.3135 949.782 20.3298 954.844 20.3298C960.461 20.3298 965.522 21.4957 970.028 23.8274C974.596 26.0863 978.423 29.4382 981.51 33.883L971.88 44.3758C969.658 41.3883 967.189 39.1659 964.473 37.7085C961.757 36.1783 958.794 35.4132 955.584 35.4132C952.56 35.4132 949.782 35.9962 947.251 37.162C944.72 38.3279 942.529 40.0038 940.677 42.1898C938.825 44.3758 937.375 46.9626 936.325 49.9501C935.338 52.9377 934.844 56.2531 934.844 59.8965C934.844 63.5398 935.338 66.8552 936.325 69.8428C937.375 72.8303 938.825 75.4171 940.677 77.6031C942.529 79.7891 944.72 81.465 947.251 82.6309C949.782 83.7967 952.56 84.3797 955.584 84.3797C958.794 84.3797 961.757 83.651 964.473 82.1937C967.189 80.6635 969.658 78.3682 971.88 75.3078L981.51 85.8006C978.423 90.2454 974.596 93.6337 970.028 95.9655C965.522 98.2972 960.43 99.4631 954.751 99.4631Z" fill="black"/>
<path d="M1026.04 99.4631C1020.92 99.4631 1016.16 98.4794 1011.78 96.512C1007.46 94.5446 1003.69 91.7757 1000.48 88.2052C997.337 84.6347 994.868 80.4449 993.078 75.6357C991.349 70.8265 990.485 65.5801 990.485 59.8965C990.485 54.2128 991.349 48.9664 993.078 44.1572C994.868 39.348 997.368 35.1582 1000.58 31.5877C1003.79 28.0173 1007.55 25.2483 1011.87 23.2809C1016.19 21.3135 1020.89 20.3298 1025.95 20.3298C1031.07 20.3298 1035.76 21.3135 1040.02 23.2809C1044.34 25.2483 1048.08 28.0173 1051.22 31.5877C1054.43 35.1582 1056.93 39.348 1058.72 44.1572C1060.51 48.8936 1061.41 54.14 1061.41 59.8965C1061.41 65.5801 1060.51 70.8629 1058.72 75.745C1056.93 80.5542 1054.43 84.744 1051.22 88.3145C1048.08 91.8121 1044.34 94.5446 1040.02 96.512C1035.76 98.4794 1031.1 99.4631 1026.04 99.4631ZM1025.95 84.3797C1028.85 84.3797 1031.5 83.7967 1033.91 82.6309C1036.38 81.465 1038.54 79.7891 1040.39 77.6031C1042.24 75.4171 1043.66 72.8303 1044.65 69.8428C1045.7 66.8552 1046.22 63.5398 1046.22 59.8965C1046.22 56.2531 1045.7 52.9377 1044.65 49.9501C1043.66 46.9626 1042.24 44.3758 1040.39 42.1898C1038.6 40.0038 1036.47 38.3279 1034 37.162C1031.53 35.9962 1028.85 35.4132 1025.95 35.4132C1023.05 35.4132 1020.36 35.9962 1017.89 37.162C1015.48 38.3279 1013.35 40.0038 1011.5 42.1898C1009.65 44.3758 1008.2 46.9626 1007.15 49.9501C1006.16 52.9377 1005.67 56.2531 1005.67 59.8965C1005.67 63.4669 1006.16 66.7824 1007.15 69.8428C1008.2 72.8303 1009.62 75.4171 1011.41 77.6031C1013.26 79.7891 1015.42 81.465 1017.89 82.6309C1020.36 83.7967 1023.05 84.3797 1025.95 84.3797Z" fill="black"/>
<path d="M1078.06 98.1515V21.6414H1130.37V35.7411H1092.96V51.4803H1110.93C1118.77 51.4803 1124.72 53.4113 1128.8 57.2733C1132.93 61.1352 1135 66.7459 1135 74.1055C1135 81.6836 1132.72 87.5858 1128.15 91.8121C1123.58 96.0383 1117.13 98.1515 1108.8 98.1515H1078.06ZM1092.96 85.0355H1107.96C1111.79 85.0355 1114.72 84.1611 1116.76 82.4123C1118.8 80.5906 1119.82 77.9674 1119.82 74.5427C1119.82 67.8389 1115.86 64.4871 1107.96 64.4871H1092.96V85.0355Z" fill="black"/>
</g>
<defs>
<filter id="filter0_d_432_103" x="0" y="0" width="1139" height="122" filterUnits="userSpaceOnUse" color-interpolation-filters="sRGB">
<feFlood flood-opacity="0" result="BackgroundImageFix"/>
<feColorMatrix in="SourceAlpha" type="matrix" values="0 0 0 0 0 0 0 0 0 0 0 0 0 0 0 0 0 0 127 0" result="hardAlpha"/>
<feOffset dy="4"/>
<feGaussianBlur stdDeviation="2"/>
<feComposite in2="hardAlpha" operator="out"/>
<feColorMatrix type="matrix" values="0 0 0 0 0 0 0 0 0 0 0 0 0 0 0 0 0 0 0.25 0"/>
<feBlend mode="normal" in2="BackgroundImageFix" result="effect1_dropShadow_432_103"/>
<feBlend mode="normal" in="SourceGraphic" in2="effect1_dropShadow_432_103" result="shape"/>
</filter>
</defs>
</svg>
