<svg width="1139" height="103" viewBox="0 0 1139 103" fill="none" xmlns="http://www.w3.org/2000/svg" preserveAspectRatio="none">
<g filter="url(#filter0_d_432_104)">
<path d="M4 75.3098V4.26282H15.554L41.2489 54.4017H35.127L60.3907 4.26282H71.9447L72.0309 75.3098H58.9248L58.8386 27.9113H61.3391L41.0764 67.7991H34.8683L14.1745 27.9113H17.1061V75.3098H4Z" fill="black"/>
<path d="M101.338 95C97.8888 88.8426 95.2158 81.7379 93.3189 73.6859C91.4794 65.5662 90.5597 56.8376 90.5597 47.5C90.5597 38.1624 91.4794 29.4338 93.3189 21.3141C95.2158 13.1268 97.8888 6.02208 101.338 0H114.185C110.564 7.64601 107.92 15.3597 106.253 23.141C104.586 30.8547 103.752 38.9744 103.752 47.5C103.752 56.0256 104.586 64.1791 106.253 71.9605C107.92 79.6741 110.564 87.354 114.185 95H101.338Z" fill="black"/>
<path d="M156.558 27.6068C163.858 27.6068 169.491 29.5353 173.458 33.3921C177.424 37.1813 179.407 42.8989 179.407 50.5449C179.407 58.6645 177.194 64.8219 172.768 69.0171C168.399 73.2122 162.335 75.3098 154.574 75.3098H127.328V4.26282H141.21V27.6068H156.558ZM153.798 63.1303C157.362 63.1303 160.179 62.0816 162.248 59.984C164.318 57.8864 165.352 54.8415 165.352 50.8494C165.352 46.9249 164.318 44.1168 162.248 42.4252C160.237 40.666 157.42 39.7863 153.798 39.7863H141.21V63.1303H153.798ZM187.081 75.3098V4.26282H200.963V75.3098H187.081Z" fill="black"/>
<path d="M226.944 95H214.097C217.833 87.354 220.506 79.6741 222.116 71.9605C223.783 64.1791 224.616 56.0256 224.616 47.5C224.616 38.9744 223.783 30.8547 222.116 23.141C220.506 15.3597 217.833 7.64601 214.097 0H226.944C230.508 6.02208 233.21 13.1268 235.049 21.3141C236.889 29.4338 237.808 38.1624 237.808 47.5C237.808 56.8376 236.889 65.5662 235.049 73.6859C233.21 81.7379 230.508 88.8426 226.944 95Z" fill="black"/>
<path d="M282.524 53.0823V40.3953H306.926V53.0823H282.524Z" fill="black"/>
<path d="M364.088 45.6731V33.0876H393.921V45.6731H364.088ZM372.021 3.04488C376.562 3.04488 380.729 3.95834 384.523 5.78525C388.317 7.54452 391.622 10.0819 394.439 13.3974C397.255 16.713 399.44 20.6036 400.992 25.0694C402.544 29.5353 403.32 34.4409 403.32 39.7863C403.32 45.1318 402.544 50.0374 400.992 54.5032C399.44 58.969 397.255 62.8597 394.439 66.1752C391.622 69.4907 388.317 72.062 384.523 73.8889C380.729 75.6481 376.562 76.5278 372.021 76.5278C366.675 76.5278 361.846 75.4452 357.535 73.2799C353.281 71.1147 349.717 67.9683 346.843 63.8408L355.724 54.0972C357.851 56.9391 360.208 59.0705 362.795 60.4915C365.381 61.8447 368.227 62.5214 371.331 62.5214C373.917 62.5214 376.303 61.9801 378.487 60.8974C380.729 59.7472 382.626 58.1909 384.178 56.2286C385.788 54.1987 386.995 51.7966 387.8 49.0224C388.662 46.2482 389.093 43.1695 389.093 39.7863C389.093 36.4031 388.662 33.3244 387.8 30.5502C386.995 27.776 385.788 25.4078 384.178 23.4455C382.626 21.4156 380.729 19.8593 378.487 18.7767C376.303 17.6264 373.917 17.0513 371.331 17.0513C368.227 17.0513 365.381 17.7618 362.795 19.1827C360.208 20.536 357.851 22.6335 355.724 25.4754L346.843 15.7318C349.717 11.6043 353.281 8.45798 357.535 6.29274C361.846 4.1275 366.675 3.04488 372.021 3.04488Z" fill="black"/>
<path d="M431.179 75.3098V13.9049L434.369 17.6603H411.951V4.26282H464.289V17.6603H441.871L444.975 13.9049V75.3098H431.179Z" fill="black"/>
<path d="M505.845 76.5278C501.074 76.5278 496.648 75.6143 492.567 73.7874C488.543 71.9605 485.036 69.3892 482.047 66.0737C479.116 62.7582 476.816 58.8675 475.149 54.4017C473.54 49.9359 472.735 45.0641 472.735 39.7863C472.735 34.5085 473.54 29.6368 475.149 25.1709C476.816 20.7051 479.144 16.8145 482.134 13.4989C485.123 10.1834 488.629 7.61218 492.653 5.78525C496.677 3.95834 501.045 3.04488 505.759 3.04488C510.53 3.04488 514.899 3.95834 518.865 5.78525C522.889 7.61218 526.367 10.1834 529.298 13.4989C532.287 16.8145 534.615 20.7051 536.282 25.1709C537.949 29.5691 538.783 34.4409 538.783 39.7863C538.783 45.0641 537.949 49.9697 536.282 54.5032C534.615 58.969 532.287 62.8597 529.298 66.1752C526.367 69.4231 522.889 71.9605 518.865 73.7874C514.899 75.6143 510.559 76.5278 505.845 76.5278ZM505.759 62.5214C508.461 62.5214 510.932 61.9801 513.174 60.8974C515.474 59.8148 517.486 58.2585 519.21 56.2286C520.935 54.1987 522.257 51.7966 523.176 49.0224C524.154 46.2482 524.642 43.1695 524.642 39.7863C524.642 36.4031 524.154 33.3244 523.176 30.5502C522.257 27.776 520.935 25.3739 519.21 23.344C517.543 21.3141 515.56 19.7578 513.261 18.6752C510.961 17.5926 508.461 17.0513 505.759 17.0513C503.057 17.0513 500.557 17.5926 498.258 18.6752C496.016 19.7578 494.033 21.3141 492.308 23.344C490.584 25.3739 489.233 27.776 488.255 30.5502C487.336 33.3244 486.876 36.4031 486.876 39.7863C486.876 43.1018 487.336 46.1806 488.255 49.0224C489.233 51.7966 490.555 54.1987 492.222 56.2286C493.946 58.2585 495.958 59.8148 498.258 60.8974C500.557 61.9801 503.057 62.5214 505.759 62.5214Z" fill="black"/>
<path d="M624.835 4.26282H638.803V75.3098H624.835V4.26282ZM597.415 75.3098H583.447V4.26282H597.415V75.3098ZM625.869 46.1806H596.381V32.2756H625.869V46.1806Z" fill="black"/>
<path d="M651.856 75.3098L678.758 4.26282H692.554L719.542 75.3098H704.884L682.81 12.5855H688.329L666.169 75.3098H651.856ZM665.307 60.0855L669.015 47.6015H700.055L703.849 60.0855H665.307Z" fill="black"/>
<path d="M732.288 75.3098V4.26282H746.17V50.5449L774.969 4.26282H788.075V75.3098H774.279V29.1293L745.481 75.3098H732.288Z" fill="black"/>
<path d="M807.846 75.3098V4.26282H856.562V17.3558H821.728V31.9712H838.455C845.756 31.9712 851.303 33.7642 855.096 37.3504C858.948 40.9366 860.874 46.1467 860.874 52.9808C860.874 60.0178 858.747 65.4986 854.493 69.4231C850.239 73.3476 844.232 75.3098 836.472 75.3098H807.846ZM821.728 63.1303H835.696C839.26 63.1303 841.99 62.3184 843.887 60.6944C845.784 59.0028 846.733 56.567 846.733 53.3868C846.733 47.1617 843.054 44.0491 835.696 44.0491H821.728V63.1303Z" fill="black"/>
<path d="M905.131 76.5278C900.36 76.5278 895.934 75.6143 891.852 73.7874C887.829 71.9605 884.322 69.3892 881.333 66.0737C878.401 62.7582 876.102 58.8675 874.435 54.4017C872.825 49.9359 872.021 45.0641 872.021 39.7863C872.021 34.5085 872.825 29.6368 874.435 25.1709C876.102 20.7051 878.43 16.8145 881.419 13.4989C884.408 10.1834 887.915 7.61218 891.939 5.78525C895.962 3.95834 900.331 3.04488 905.045 3.04488C909.816 3.04488 914.184 3.95834 918.151 5.78525C922.175 7.61218 925.652 10.1834 928.584 13.4989C931.573 16.8145 933.901 20.7051 935.568 25.1709C937.235 29.5691 938.069 34.4409 938.069 39.7863C938.069 45.0641 937.235 49.9697 935.568 54.5032C933.901 58.969 931.573 62.8597 928.584 66.1752C925.652 69.4231 922.175 71.9605 918.151 73.7874C914.184 75.6143 909.844 76.5278 905.131 76.5278ZM905.045 62.5214C907.746 62.5214 910.218 61.9801 912.46 60.8974C914.759 59.8148 916.771 58.2585 918.496 56.2286C920.22 54.1987 921.542 51.7966 922.462 49.0224C923.439 46.2482 923.928 43.1695 923.928 39.7863C923.928 36.4031 923.439 33.3244 922.462 30.5502C921.542 27.776 920.22 25.3739 918.496 23.344C916.829 21.3141 914.846 19.7578 912.546 18.6752C910.247 17.5926 907.746 17.0513 905.045 17.0513C902.343 17.0513 899.842 17.5926 897.543 18.6752C895.301 19.7578 893.318 21.3141 891.594 23.344C889.869 25.3739 888.518 27.776 887.541 30.5502C886.621 33.3244 886.161 36.4031 886.161 39.7863C886.161 43.1018 886.621 46.1806 887.541 49.0224C888.518 51.7966 889.84 54.1987 891.507 56.2286C893.232 58.2585 895.244 59.8148 897.543 60.8974C899.842 61.9801 902.343 62.5214 905.045 62.5214Z" fill="black"/>
<path d="M952.491 76.4263C951.456 76.4263 950.364 76.3248 949.214 76.1218C948.122 75.9188 946.915 75.6481 945.593 75.3098L946.455 61.4049C947.26 61.6756 948.093 61.8109 948.956 61.8109C951.312 61.8109 953.152 60.6944 954.474 58.4615C955.796 56.161 956.745 52.8793 957.319 48.6165C957.894 44.3536 958.268 39.1773 958.44 33.0876L959.303 4.26282H1005.69V75.3098H991.895V13.9049L995.086 17.6603H968.442L971.288 13.7019L970.77 32.4786C970.598 39.448 970.196 45.6392 969.563 51.0523C968.931 56.4655 967.954 61.0666 966.632 64.8558C965.31 68.6449 963.499 71.5207 961.2 73.4829C958.9 75.4452 955.997 76.4263 952.491 76.4263Z" fill="black"/>
<path d="M1038.36 32.8846H1067.41V45.6731H1038.36V32.8846ZM1039.39 62.1154H1072.24V75.3098H1025.51V4.26282H1071.12V17.4573H1039.39V62.1154Z" fill="black"/>
<path d="M1101.11 32.8846H1130.17V45.6731H1101.11V32.8846ZM1102.15 62.1154H1135V75.3098H1088.27V4.26282H1133.88V17.4573H1102.15V62.1154Z" fill="black"/>
</g>
<defs>
<filter id="filter0_d_432_104" x="0" y="0" width="1139" height="103" filterUnits="userSpaceOnUse" color-interpolation-filters="sRGB">
<feFlood flood-opacity="0" result="BackgroundImageFix"/>
<feColorMatrix in="SourceAlpha" type="matrix" values="0 0 0 0 0 0 0 0 0 0 0 0 0 0 0 0 0 0 127 0" result="hardAlpha"/>
<feOffset dy="4"/>
<feGaussianBlur stdDeviation="2"/>
<feComposite in2="hardAlpha" operator="out"/>
<feColorMatrix type="matrix" values="0 0 0 0 0 0 0 0 0 0 0 0 0 0 0 0 0 0 0.25 0"/>
<feBlend mode="normal" in2="BackgroundImageFix" result="effect1_dropShadow_432_104"/>
<feBlend mode="normal" in="SourceGraphic" in2="effect1_dropShadow_432_104" result="shape"/>
</filter>
</defs>
</svg>
