<svg width="575" height="86" viewBox="0 0 575 86" fill="none" xmlns="http://www.w3.org/2000/svg" preserveAspectRatio="none">
    <path d="M0.953125 83.286V1.40369H75.235V83.286H56.4899V12.5163L60.7977 16.8444H15.3903L19.6982 12.5163V83.286H0.953125Z" fill="black"/>
    <path d="M140.846 84.6897C134.403 84.6897 128.426 83.6369 122.915 81.5314C117.482 79.4258 112.747 76.4625 108.711 72.6413C104.752 68.8201 101.648 64.3361 99.3967 59.1892C97.2234 54.0423 96.1367 48.4275 96.1367 42.3449C96.1367 36.2622 97.2234 30.6474 99.3967 25.5005C101.648 20.3536 104.791 15.8696 108.828 12.0484C112.864 8.22722 117.599 5.26386 123.032 3.15831C128.465 1.05277 134.364 0 140.729 0C147.172 0 153.071 1.05277 158.426 3.15831C163.86 5.26386 168.556 8.22722 172.514 12.0484C176.551 15.8696 179.694 20.3536 181.945 25.5005C184.196 30.5694 185.322 36.1842 185.322 42.3449C185.322 48.4275 184.196 54.0813 181.945 59.3062C179.694 64.4531 176.551 68.9371 172.514 72.7583C168.556 76.5015 163.86 79.4258 158.426 81.5314C153.071 83.6369 147.21 84.6897 140.846 84.6897ZM140.729 68.5472C144.377 68.5472 147.715 67.9233 150.742 66.6756C153.847 65.4279 156.563 63.6343 158.892 61.2948C161.221 58.9553 163.006 56.1869 164.248 52.9896C165.567 49.7923 166.227 46.244 166.227 42.3449C166.227 38.4457 165.567 34.8975 164.248 31.7002C163.006 28.5028 161.221 25.7344 158.892 23.3949C156.641 21.0555 153.963 19.2618 150.858 18.0141C147.754 16.7664 144.377 16.1425 140.729 16.1425C137.081 16.1425 133.705 16.7664 130.6 18.0141C127.573 19.2618 124.895 21.0555 122.566 23.3949C120.238 25.7344 118.414 28.5028 117.094 31.7002C115.852 34.8975 115.231 38.4457 115.231 42.3449C115.231 46.166 115.852 49.7143 117.094 52.9896C118.414 56.1869 120.199 58.9553 122.45 61.2948C124.778 63.6343 127.495 65.4279 130.6 66.6756C133.705 67.9233 137.081 68.5472 140.729 68.5472Z" fill="black"/>
    <path d="M255.546 52.7556C251.509 54.3933 247.628 55.641 243.903 56.4988C240.177 57.2786 236.606 57.6685 233.191 57.6685C222.247 57.6685 213.864 55.0561 208.042 49.8312C202.221 44.5284 199.31 36.925 199.31 27.0212V1.40369H217.939V24.9156C217.939 30.5304 219.453 34.7805 222.48 37.6659C225.507 40.4733 229.815 41.877 235.403 41.877C238.974 41.877 242.428 41.487 245.766 40.7072C249.103 39.8494 252.208 38.6407 255.08 37.081L255.546 52.7556ZM252.868 83.286V1.40369H271.496V83.286H252.868Z" fill="black"/>
    <path d="M315.509 34.3906H354.746V49.1294H315.509V34.3906ZM316.906 68.0793H361.266V83.286H298.161V1.40369H359.752V16.6104H316.906V68.0793Z" fill="black"/>
    <path d="M382.905 83.286V1.40369H398.506L433.202 59.1892H424.936L459.049 1.40369H474.651L474.767 83.286H457.07L456.954 28.6588H460.33L432.969 74.6299H424.586L396.643 28.6588H400.602V83.286H382.905Z" fill="black"/>
    <path d="M504.211 67.8454C508.713 69.1711 512.478 69.561 515.505 69.0151C518.609 68.3912 521.365 66.2077 523.771 62.4645L527.73 56.4988L529.476 54.5102L556.488 1.40369H575L540.304 66.2077C537.199 72.0564 533.512 76.5405 529.243 79.6598C525.052 82.7791 520.434 84.5338 515.388 84.9237C510.343 85.3916 505.104 84.4948 499.67 82.2333L504.211 67.8454ZM529.127 70.3018L492.335 1.40369H512.478L539.489 56.3818L529.127 70.3018Z" fill="black"/>
</svg>
