<svg width="580" height="46" viewBox="0 0 580 46" fill="none" xmlns="http://www.w3.org/2000/svg" preserveAspectRatio="none">
    <path d="M12.5857 26.6936V18.8282H34.359V26.6936H12.5857ZM18.3752 0.0527344C21.6894 0.0527344 24.731 0.623609 27.4998 1.76536C30.2687 2.86482 32.6809 4.45059 34.7366 6.52266C36.7923 8.59472 38.3865 11.0262 39.5192 13.8172C40.6519 16.6081 41.2183 19.6739 41.2183 23.0146C41.2183 26.3553 40.6519 29.4211 39.5192 32.212C38.3865 35.003 36.7923 37.4345 34.7366 39.5066C32.6809 41.5786 30.2687 43.1855 27.4998 44.3273C24.731 45.4268 21.6894 45.9765 18.3752 45.9765C14.4736 45.9765 10.9496 45.2999 7.80315 43.9467C4.69867 42.5935 2.09762 40.6272 0 38.0477L6.48165 31.9583C8.03389 33.7344 9.75394 35.0664 11.6418 35.9545C13.5297 36.8002 15.6063 37.2231 17.8717 37.2231C19.7596 37.2231 21.5006 36.8848 23.0948 36.2082C24.731 35.4893 26.1154 34.5167 27.2481 33.2904C28.4228 32.0218 29.3038 30.5206 29.8911 28.7868C30.5204 27.053 30.835 25.129 30.835 23.0146C30.835 20.9003 30.5204 18.9762 29.8911 17.2424C29.3038 15.5087 28.4228 14.0286 27.2481 12.8023C26.1154 11.5337 24.731 10.5611 23.0948 9.88448C21.5006 9.1656 19.7596 8.80616 17.8717 8.80616C15.6063 8.80616 13.5297 9.25017 11.6418 10.1382C9.75394 10.9839 8.03389 12.2948 6.48165 14.0709L0 7.98156C2.09762 5.40205 4.69867 3.4357 7.80315 2.08251C10.9496 0.729328 14.4736 0.0527344 18.3752 0.0527344Z" fill="black"/>
    <path d="M61.5506 45.2153V6.83981L63.879 9.18674H47.5175V0.8139H85.7152V9.18674H69.3538L71.6192 6.83981V45.2153H61.5506Z" fill="black"/>
    <path d="M116.044 45.9765C112.562 45.9765 109.331 45.4056 106.353 44.2639C103.416 43.1221 100.857 41.5152 98.6756 39.4431C96.536 37.3711 94.8579 34.9396 93.6413 32.1486C92.4666 29.3577 91.8793 26.313 91.8793 23.0146C91.8793 19.7162 92.4666 16.6716 93.6413 13.8806C94.8579 11.0897 96.557 8.65815 98.7385 6.58609C100.92 4.51402 103.479 2.90711 106.416 1.76536C109.352 0.623609 112.541 0.0527344 115.981 0.0527344C119.463 0.0527344 122.651 0.623609 125.546 1.76536C128.483 2.90711 131.021 4.51402 133.16 6.58609C135.342 8.65815 137.041 11.0897 138.258 13.8806C139.474 16.6293 140.083 19.6739 140.083 23.0146C140.083 26.313 139.474 29.3788 138.258 32.212C137.041 35.003 135.342 37.4345 133.16 39.5066C131.021 41.5363 128.483 43.1221 125.546 44.2639C122.651 45.4056 119.484 45.9765 116.044 45.9765ZM115.981 37.2231C117.953 37.2231 119.757 36.8848 121.393 36.2082C123.071 35.5316 124.539 34.559 125.798 33.2904C127.056 32.0218 128.021 30.5206 128.693 28.7868C129.406 27.053 129.762 25.129 129.762 23.0146C129.762 20.9003 129.406 18.9762 128.693 17.2424C128.021 15.5087 127.056 14.0075 125.798 12.7389C124.581 11.4702 123.134 10.4976 121.456 9.82105C119.778 9.14445 117.953 8.80616 115.981 8.80616C114.009 8.80616 112.184 9.14445 110.506 9.82105C108.87 10.4976 107.423 11.4702 106.164 12.7389C104.905 14.0075 103.92 15.5087 103.206 17.2424C102.535 18.9762 102.2 20.9003 102.2 23.0146C102.2 25.0867 102.535 27.0107 103.206 28.7868C103.92 30.5206 104.885 32.0218 106.101 33.2904C107.36 34.559 108.828 35.5316 110.506 36.2082C112.184 36.8848 114.009 37.2231 115.981 37.2231Z" fill="black"/>
    <path d="M172.68 45.2153V0.8139H212.828V45.2153H202.697V6.83981L205.025 9.18674H180.483L182.811 6.83981V45.2153H172.68Z" fill="black"/>
    <path d="M227.209 45.2153V0.8139H246.276C250.22 0.8139 253.618 1.46935 256.471 2.78025C259.323 4.04886 261.526 5.88835 263.078 8.29871C264.63 10.7091 265.406 13.5846 265.406 16.9253C265.406 20.2237 264.63 23.078 263.078 25.4884C261.526 27.8988 259.323 29.7594 256.471 31.0703C253.618 32.3389 250.22 32.9732 246.276 32.9732H232.872L237.403 28.3428V45.2153H227.209ZM237.403 29.4845L232.872 24.6004H245.71C248.856 24.6004 251.206 23.9238 252.758 22.5706C254.31 21.2174 255.086 19.3356 255.086 16.9253C255.086 14.4726 254.31 12.5697 252.758 11.2165C251.206 9.86333 248.856 9.18674 245.71 9.18674H232.872L237.403 4.30258V29.4845Z" fill="black"/>
    <path d="M275.593 45.2153V0.8139H285.724V29.7383L306.742 0.8139H316.307V45.2153H306.239V16.3544L285.221 45.2153H275.593Z" fill="black"/>
    <path d="M360.942 0.8139H371.136V45.2153H360.942V0.8139ZM340.931 45.2153H330.736V0.8139H340.931V45.2153ZM361.697 27.0107H340.176V18.3207H361.697V27.0107Z" fill="black"/>
    <path d="M406.715 45.9765C403.233 45.9765 400.003 45.4056 397.024 44.2639C394.087 43.1221 391.528 41.5152 389.347 39.4431C387.207 37.3711 385.529 34.9396 384.313 32.1486C383.138 29.3577 382.551 26.313 382.551 23.0146C382.551 19.7162 383.138 16.6716 384.313 13.8806C385.529 11.0897 387.228 8.65815 389.41 6.58609C391.591 4.51402 394.15 2.90711 397.087 1.76536C400.024 0.623609 403.212 0.0527344 406.652 0.0527344C410.134 0.0527344 413.323 0.623609 416.217 1.76536C419.154 2.90711 421.692 4.51402 423.832 6.58609C426.013 8.65815 427.712 11.0897 428.929 13.8806C430.146 16.6293 430.754 19.6739 430.754 23.0146C430.754 26.313 430.146 29.3788 428.929 32.212C427.712 35.003 426.013 37.4345 423.832 39.5066C421.692 41.5363 419.154 43.1221 416.217 44.2639C413.323 45.4056 410.155 45.9765 406.715 45.9765ZM406.652 37.2231C408.624 37.2231 410.428 36.8848 412.064 36.2082C413.742 35.5316 415.211 34.559 416.469 33.2904C417.728 32.0218 418.693 30.5206 419.364 28.7868C420.077 27.053 420.434 25.129 420.434 23.0146C420.434 20.9003 420.077 18.9762 419.364 17.2424C418.693 15.5087 417.728 14.0075 416.469 12.7389C415.252 11.4702 413.805 10.4976 412.127 9.82105C410.449 9.14445 408.624 8.80616 406.652 8.80616C404.68 8.80616 402.856 9.14445 401.177 9.82105C399.541 10.4976 398.094 11.4702 396.835 12.7389C395.577 14.0075 394.591 15.5087 393.878 17.2424C393.206 18.9762 392.871 20.9003 392.871 23.0146C392.871 25.0867 393.206 27.0107 393.878 28.7868C394.591 30.5206 395.556 32.0218 396.772 33.2904C398.031 34.559 399.499 35.5316 401.177 36.2082C402.856 36.8848 404.68 37.2231 406.652 37.2231Z" fill="black"/>
    <path d="M462.898 45.9765C459.5 45.9765 456.332 45.4268 453.395 44.3273C450.501 43.1855 447.984 41.5786 445.844 39.5066C443.704 37.4345 442.026 35.003 440.81 32.212C439.635 29.4211 439.048 26.3553 439.048 23.0146C439.048 19.6739 439.635 16.6081 440.81 13.8172C442.026 11.0262 443.704 8.59472 445.844 6.52266C448.026 4.45059 450.564 2.86482 453.458 1.76536C456.353 0.623609 459.521 0.0527344 462.961 0.0527344C466.778 0.0527344 470.218 0.729328 473.281 2.08251C476.385 3.39341 478.986 5.33862 481.084 7.91813L474.539 14.0075C473.029 12.2737 471.351 10.9839 469.505 10.1382C467.659 9.25017 465.646 8.80616 463.464 8.80616C461.408 8.80616 459.52 9.14445 457.8 9.82105C456.08 10.4976 454.591 11.4702 453.332 12.7389C452.074 14.0075 451.088 15.5087 450.375 17.2424C449.704 18.9762 449.368 20.9003 449.368 23.0146C449.368 25.129 449.704 27.053 450.375 28.7868C451.088 30.5206 452.074 32.0218 453.332 33.2904C454.591 34.559 456.08 35.5316 457.8 36.2082C459.52 36.8848 461.408 37.2231 463.464 37.2231C465.646 37.2231 467.659 36.8002 469.505 35.9545C471.351 35.0664 473.029 33.7344 474.539 31.9583L481.084 38.0477C478.986 40.6272 476.385 42.5935 473.281 43.9467C470.218 45.2999 466.757 45.9765 462.898 45.9765Z" fill="black"/>
    <path d="M491.189 45.2153V0.8139H501.321V29.7383L522.339 0.8139H531.904V45.2153H521.836V16.3544L500.818 45.2153H491.189Z" fill="black"/>
    <path d="M555.835 45.2153V6.83981L558.164 9.18674H541.802V0.8139H580V9.18674H563.639L565.904 6.83981V45.2153H555.835Z" fill="black"/>
</svg>
