<svg width="708" height="501" viewBox="0 0 708 501" fill="none" xmlns="http://www.w3.org/2000/svg">
    <mask id="mask0_566_5139" style="mask-type:alpha" maskUnits="userSpaceOnUse" x="0" y="0" width="708" height="501">
        <path d="M0 0H708V501H0V0Z" fill="#D9D9D9"/>
    </mask>
    <g mask="url(#mask0_566_5139)">
        <path fill-rule="evenodd" clip-rule="evenodd" d="M-993.614 -6.09134L794.71 955.105L794.236 955.986L-994.088 -5.21051L-993.614 -6.09134Z" fill="white" fill-opacity="0.2"/>
        <path fill-rule="evenodd" clip-rule="evenodd" d="M-967.614 -15.0913L820.71 946.105L820.236 946.986L-968.088 -14.2105L-967.614 -15.0913Z" fill="white" fill-opacity="0.2"/>
        <path fill-rule="evenodd" clip-rule="evenodd" d="M-941.614 -24.0913L846.71 937.105L846.236 937.986L-942.088 -23.2105L-941.614 -24.0913Z" fill="white" fill-opacity="0.2"/>
        <path fill-rule="evenodd" clip-rule="evenodd" d="M-915.614 -33.0913L872.71 928.105L872.236 928.986L-916.088 -32.2105L-915.614 -33.0913Z" fill="white" fill-opacity="0.2"/>
        <path fill-rule="evenodd" clip-rule="evenodd" d="M-889.614 -42.0913L898.71 919.105L898.236 919.986L-890.088 -41.2105L-889.614 -42.0913Z" fill="white" fill-opacity="0.2"/>
        <path fill-rule="evenodd" clip-rule="evenodd" d="M-863.614 -51.0913L924.71 910.105L924.236 910.986L-864.088 -50.2105L-863.614 -51.0913Z" fill="white" fill-opacity="0.2"/>
        <path fill-rule="evenodd" clip-rule="evenodd" d="M-837.614 -60.0913L950.71 901.105L950.236 901.986L-838.088 -59.2105L-837.614 -60.0913Z" fill="white" fill-opacity="0.2"/>
        <path fill-rule="evenodd" clip-rule="evenodd" d="M-811.614 -69.0913L976.71 892.105L976.236 892.986L-812.088 -68.2105L-811.614 -69.0913Z" fill="white" fill-opacity="0.2"/>
        <path fill-rule="evenodd" clip-rule="evenodd" d="M-785.614 -78.0913L1002.71 883.105L1002.24 883.986L-786.088 -77.2105L-785.614 -78.0913Z" fill="white" fill-opacity="0.2"/>
        <path fill-rule="evenodd" clip-rule="evenodd" d="M-759.614 -87.0913L1028.71 874.105L1028.24 874.986L-760.088 -86.2105L-759.614 -87.0913Z" fill="white" fill-opacity="0.2"/>
        <path fill-rule="evenodd" clip-rule="evenodd" d="M-733.616 -96.0913L1054.71 865.105L1054.23 865.986L-734.09 -95.2105L-733.616 -96.0913Z" fill="white" fill-opacity="0.2"/>
        <path fill-rule="evenodd" clip-rule="evenodd" d="M-707.616 -105.091L1080.71 856.105L1080.23 856.986L-708.09 -104.211L-707.616 -105.091Z" fill="white" fill-opacity="0.2"/>
        <path fill-rule="evenodd" clip-rule="evenodd" d="M-681.616 -114.091L1106.71 847.105L1106.23 847.986L-682.09 -113.211L-681.616 -114.091Z" fill="white" fill-opacity="0.2"/>
        <path fill-rule="evenodd" clip-rule="evenodd" d="M-655.616 -123.091L1132.71 838.105L1132.23 838.986L-656.09 -122.211L-655.616 -123.091Z" fill="white" fill-opacity="0.2"/>
        <path fill-rule="evenodd" clip-rule="evenodd" d="M-629.616 -132.091L1158.71 829.105L1158.23 829.986L-630.09 -131.211L-629.616 -132.091Z" fill="white" fill-opacity="0.2"/>
        <path fill-rule="evenodd" clip-rule="evenodd" d="M-603.616 -141.091L1184.71 820.105L1184.23 820.986L-604.09 -140.211L-603.616 -141.091Z" fill="white" fill-opacity="0.2"/>
        <path fill-rule="evenodd" clip-rule="evenodd" d="M-577.616 -150.091L1210.71 811.105L1210.23 811.986L-578.09 -149.211L-577.616 -150.091Z" fill="white" fill-opacity="0.2"/>
        <path fill-rule="evenodd" clip-rule="evenodd" d="M-551.616 -159.091L1236.71 802.105L1236.23 802.986L-552.09 -158.211L-551.616 -159.091Z" fill="white" fill-opacity="0.2"/>
        <path fill-rule="evenodd" clip-rule="evenodd" d="M-525.616 -168.091L1262.71 793.105L1262.23 793.986L-526.09 -167.211L-525.616 -168.091Z" fill="white" fill-opacity="0.2"/>
        <path fill-rule="evenodd" clip-rule="evenodd" d="M-499.616 -177.091L1288.71 784.105L1288.23 784.986L-500.09 -176.211L-499.616 -177.091Z" fill="white" fill-opacity="0.2"/>
        <path fill-rule="evenodd" clip-rule="evenodd" d="M-473.616 -186.091L1314.71 775.105L1314.23 775.986L-474.09 -185.211L-473.616 -186.091Z" fill="white" fill-opacity="0.2"/>
        <path fill-rule="evenodd" clip-rule="evenodd" d="M-447.616 -195.091L1340.71 766.105L1340.23 766.986L-448.09 -194.211L-447.616 -195.091Z" fill="white" fill-opacity="0.2"/>
        <path fill-rule="evenodd" clip-rule="evenodd" d="M-421.616 -204.091L1366.71 757.105L1366.23 757.986L-422.09 -203.211L-421.616 -204.091Z" fill="white" fill-opacity="0.2"/>
        <path fill-rule="evenodd" clip-rule="evenodd" d="M-395.616 -213.091L1392.71 748.105L1392.23 748.986L-396.09 -212.211L-395.616 -213.091Z" fill="white" fill-opacity="0.2"/>
        <path fill-rule="evenodd" clip-rule="evenodd" d="M-369.616 -222.091L1418.71 739.105L1418.23 739.986L-370.09 -221.211L-369.616 -222.091Z" fill="white" fill-opacity="0.2"/>
        <path fill-rule="evenodd" clip-rule="evenodd" d="M-343.616 -231.091L1444.71 730.105L1444.23 730.986L-344.09 -230.211L-343.616 -231.091Z" fill="white" fill-opacity="0.2"/>
        <path fill-rule="evenodd" clip-rule="evenodd" d="M-317.616 -240.091L1470.71 721.105L1470.23 721.986L-318.09 -239.211L-317.616 -240.091Z" fill="white" fill-opacity="0.2"/>
        <path fill-rule="evenodd" clip-rule="evenodd" d="M-291.616 -249.092L1496.71 712.104L1496.23 712.985L-292.09 -248.211L-291.616 -249.092Z" fill="white" fill-opacity="0.2"/>
        <path fill-rule="evenodd" clip-rule="evenodd" d="M-265.616 -258.091L1522.71 703.105L1522.23 703.986L-266.09 -257.211L-265.616 -258.091Z" fill="white" fill-opacity="0.2"/>
        <path fill-rule="evenodd" clip-rule="evenodd" d="M-239.616 -267.091L1548.71 694.105L1548.23 694.986L-240.09 -266.211L-239.616 -267.091Z" fill="white" fill-opacity="0.2"/>
        <path fill-rule="evenodd" clip-rule="evenodd" d="M-213.616 -276.091L1574.71 685.105L1574.23 685.986L-214.09 -275.211L-213.616 -276.091Z" fill="white" fill-opacity="0.2"/>
        <path fill-rule="evenodd" clip-rule="evenodd" d="M-187.616 -285.091L1600.71 676.105L1600.23 676.986L-188.09 -284.211L-187.616 -285.091Z" fill="white" fill-opacity="0.2"/>
        <path fill-rule="evenodd" clip-rule="evenodd" d="M-161.616 -294.091L1626.71 667.105L1626.23 667.986L-162.09 -293.211L-161.616 -294.091Z" fill="white" fill-opacity="0.2"/>
        <path fill-rule="evenodd" clip-rule="evenodd" d="M-135.616 -303.091L1652.71 658.105L1652.23 658.986L-136.09 -302.211L-135.616 -303.091Z" fill="white" fill-opacity="0.2"/>
        <path fill-rule="evenodd" clip-rule="evenodd" d="M-109.616 -312.091L1678.71 649.105L1678.23 649.986L-110.09 -311.211L-109.616 -312.091Z" fill="white" fill-opacity="0.2"/>
        <path fill-rule="evenodd" clip-rule="evenodd" d="M-83.6164 -321.091L1704.71 640.105L1704.23 640.986L-84.0899 -320.211L-83.6164 -321.091Z" fill="white" fill-opacity="0.2"/>
        <path fill-rule="evenodd" clip-rule="evenodd" d="M-57.6164 -330.091L1730.71 631.105L1730.23 631.986L-58.0899 -329.211L-57.6164 -330.091Z" fill="white" fill-opacity="0.2"/>
        <path fill-rule="evenodd" clip-rule="evenodd" d="M-31.6164 -339.091L1756.71 622.105L1756.23 622.986L-32.0899 -338.211L-31.6164 -339.091Z" fill="white" fill-opacity="0.2"/>
        <path fill-rule="evenodd" clip-rule="evenodd" d="M-5.61645 -348.091L1782.71 613.105L1782.23 613.986L-6.08988 -347.211L-5.61645 -348.091Z" fill="white" fill-opacity="0.2"/>
        <path fill-rule="evenodd" clip-rule="evenodd" d="M20.3836 -357.091L1808.71 604.105L1808.23 604.986L19.9101 -356.211L20.3836 -357.091Z" fill="white" fill-opacity="0.2"/>
        <path fill-rule="evenodd" clip-rule="evenodd" d="M46.3836 -366.091L1834.71 595.105L1834.23 595.986L45.9101 -365.211L46.3836 -366.091Z" fill="white" fill-opacity="0.2"/>
        <path fill-rule="evenodd" clip-rule="evenodd" d="M72.3836 -375.091L1860.71 586.105L1860.23 586.986L71.9101 -374.21L72.3836 -375.091Z" fill="white" fill-opacity="0.2"/>
    </g>
</svg>
