<svg width="230" height="92" viewBox="0 0 230 92" fill="none" xmlns="http://www.w3.org/2000/svg">
    <path d="M0 92V0H17.6173L52.0893 57.1258L85.983 0H103.469L103.732 92H83.7479L83.6296 36.7812L56.5331 82.2743H46.9357L19.9838 37.9708V92H0Z" fill="white"/>
    <path fill-rule="evenodd" clip-rule="evenodd" d="M131.016 20.693H127.854V18.86C127.305 19.533 126.623 20.0377 125.808 20.3742C125.011 20.7107 124.125 20.879 123.15 20.879C121.769 20.879 120.528 20.5779 119.43 19.9757C118.349 19.3736 117.499 18.5235 116.879 17.4255C116.277 16.3274 115.975 15.0523 115.975 13.6001C115.975 12.1478 116.277 10.8815 116.879 9.80122C117.499 8.70319 118.349 7.8531 119.43 7.25095C120.528 6.6488 121.769 6.34773 123.15 6.34773C124.072 6.34773 124.913 6.50712 125.675 6.8259C126.455 7.14469 127.128 7.61401 127.695 8.23387V6.50712H131.016V20.693ZM123.523 18.0365C124.745 18.0365 125.755 17.6291 126.552 16.8145C127.349 15.9998 127.748 14.9283 127.748 13.6001C127.748 12.2718 127.349 11.2003 126.552 10.3857C125.755 9.57099 124.745 9.16365 123.523 9.16365C122.3 9.16365 121.29 9.57099 120.493 10.3857C119.714 11.2003 119.324 12.2718 119.324 13.6001C119.324 14.9283 119.714 15.9998 120.493 16.8145C121.29 17.6291 122.3 18.0365 123.523 18.0365Z" fill="white"/>
    <path d="M138.525 8.57922C139.482 7.09156 141.165 6.34773 143.574 6.34773V9.509C143.291 9.45587 143.034 9.42931 142.803 9.42931C141.51 9.42931 140.5 9.81008 139.774 10.5716C139.048 11.3154 138.684 12.3958 138.684 13.8126V20.693H135.363V6.50712H138.525V8.57922Z" fill="white"/>
    <path d="M152.185 14.6095L149.714 16.9473V20.693H146.392V0.981525H149.714V12.8828L156.596 6.50712H160.583L154.656 12.4578L161.141 20.693H157.101L152.185 14.6095Z" fill="white"/>
    <path fill-rule="evenodd" clip-rule="evenodd" d="M169.439 18.063C170.981 18.063 172.265 17.5494 173.292 16.5223L175.046 18.5678C174.426 19.3293 173.629 19.9049 172.655 20.2945C171.68 20.6842 170.582 20.879 169.36 20.879C167.8 20.879 166.427 20.569 165.241 19.9492C164.054 19.3293 163.132 18.4704 162.477 17.3723C161.839 16.2566 161.52 14.9992 161.52 13.6001C161.52 12.2187 161.83 10.979 162.45 9.88092C163.088 8.76517 163.956 7.89737 165.054 7.27751C166.171 6.65766 167.428 6.34773 168.828 6.34773C170.157 6.34773 171.361 6.63994 172.442 7.22438C173.541 7.79111 174.409 8.61464 175.046 9.69496C175.684 10.7576 176.003 12.0061 176.003 13.4407L165.134 15.5659C165.471 16.3806 166.011 17.0004 166.755 17.4255C167.499 17.8505 168.394 18.063 169.439 18.063ZM168.828 9.00426C167.606 9.00426 166.614 9.40274 165.852 10.1997C165.108 10.9967 164.736 12.0681 164.736 13.4141V13.4407L172.761 11.8999C172.531 11.0321 172.061 10.3325 171.353 9.80122C170.662 9.26991 169.82 9.00426 168.828 9.00426Z" fill="white"/>
    <path d="M187.167 19.9226C186.777 20.2414 186.299 20.4805 185.732 20.6399C185.183 20.7993 184.598 20.879 183.978 20.879C182.419 20.879 181.214 20.4716 180.364 19.657C179.513 18.8423 179.088 17.6557 179.088 16.0972V3.37241H182.41V6.61338H186.21V9.26991H182.41V16.0175C182.41 16.7082 182.578 17.2395 182.915 17.6114C183.269 17.9656 183.756 18.1427 184.376 18.1427C185.12 18.1427 185.741 17.9479 186.237 17.5583L187.167 19.9226Z" fill="white"/>
    <path d="M189.912 6.50712H193.234V20.693H189.912V6.50712Z" fill="white"/>
    <path d="M191.587 4.16937C190.984 4.16937 190.479 3.98341 190.072 3.6115C189.664 3.22187 189.461 2.74369 189.461 2.17697C189.461 1.61024 189.664 1.14092 190.072 0.769002C190.479 0.379377 190.984 0.184565 191.587 0.184565C192.189 0.184565 192.694 0.370522 193.101 0.742437C193.509 1.09664 193.712 1.54825 193.712 2.09727C193.712 2.68171 193.509 3.17759 193.101 3.58493C192.712 3.97455 192.207 4.16937 191.587 4.16937Z" fill="white"/>
    <path d="M205.646 6.34773C207.435 6.34773 208.87 6.87018 209.951 7.91508C211.032 8.95998 211.572 10.5096 211.572 12.564V20.693H208.25V12.9891C208.25 11.7493 207.958 10.8196 207.373 10.1997C206.789 9.56213 205.956 9.24335 204.875 9.24335C203.653 9.24335 202.687 9.61526 201.979 10.3591C201.27 11.0852 200.916 12.139 200.916 13.5204V20.693H197.594V6.50712H200.756V8.34013C201.306 7.68485 201.996 7.18896 202.829 6.85247C203.662 6.51597 204.601 6.34773 205.646 6.34773Z" fill="white"/>
    <path fill-rule="evenodd" clip-rule="evenodd" d="M230 6.50712V18.5412C230 23.5355 227.449 26.0326 222.347 26.0326C220.982 26.0326 219.689 25.8555 218.467 25.5013C217.244 25.1648 216.235 24.669 215.437 24.0137L216.925 21.5165C217.546 22.0301 218.325 22.4375 219.264 22.7385C220.221 23.0573 221.186 23.2167 222.161 23.2167C223.72 23.2167 224.862 22.8625 225.589 22.1541C226.315 21.4457 226.678 20.3654 226.678 18.9131V18.1693C226.111 18.7892 225.42 19.2585 224.605 19.5773C223.79 19.8961 222.896 20.0554 221.921 20.0554C220.575 20.0554 219.353 19.7721 218.254 19.2054C217.174 18.6209 216.314 17.8062 215.676 16.7613C215.056 15.7164 214.746 14.521 214.746 13.175C214.746 11.829 215.056 10.6425 215.676 9.61526C216.314 8.57036 217.174 7.76454 218.254 7.19782C219.353 6.63109 220.575 6.34773 221.921 6.34773C222.949 6.34773 223.879 6.51597 224.712 6.85247C225.562 7.18896 226.271 7.70256 226.838 8.39326V6.50712H230ZM222.426 17.2395C223.684 17.2395 224.712 16.8676 225.509 16.1238C226.324 15.3622 226.731 14.3793 226.731 13.175C226.731 11.9884 226.324 11.0232 225.509 10.2794C224.712 9.53557 223.684 9.16365 222.426 9.16365C221.151 9.16365 220.106 9.53557 219.291 10.2794C218.493 11.0232 218.095 11.9884 218.095 13.175C218.095 14.3793 218.493 15.3622 219.291 16.1238C220.106 16.8676 221.151 17.2395 222.426 17.2395Z" fill="white"/>
    <path fill-rule="evenodd" clip-rule="evenodd" d="M128.811 45.1611H130.113V31.294H128.784V34.5084C128.217 33.4635 127.438 32.6488 126.446 32.0644C125.471 31.4799 124.364 31.1877 123.124 31.1877C121.831 31.1877 120.661 31.4888 119.616 32.0909C118.571 32.6754 117.747 33.5078 117.145 34.5881C116.56 35.6507 116.268 36.8639 116.268 38.2275C116.268 39.5912 116.56 40.8044 117.145 41.867C117.747 42.9296 118.571 43.762 119.616 44.3641C120.661 44.9663 121.831 45.2674 123.124 45.2674C124.382 45.2674 125.507 44.9751 126.499 44.3907C127.491 43.8063 128.262 42.9739 128.811 41.8936V45.1611ZM126.047 43.3281C125.214 43.824 124.267 44.0719 123.204 44.0719C122.141 44.0719 121.184 43.824 120.334 43.3281C119.501 42.8322 118.837 42.1415 118.341 41.256C117.862 40.3705 117.623 39.361 117.623 38.2275C117.623 37.0941 117.862 36.0846 118.341 35.1991C118.837 34.3136 119.501 33.6229 120.334 33.127C121.184 32.6311 122.141 32.3832 123.204 32.3832C124.267 32.3832 125.214 32.6311 126.047 33.127C126.897 33.6229 127.562 34.3136 128.04 35.1991C128.536 36.0846 128.784 37.0941 128.784 38.2275C128.784 39.361 128.536 40.3705 128.04 41.256C127.562 42.1415 126.897 42.8322 126.047 43.3281Z" fill="white"/>
    <path fill-rule="evenodd" clip-rule="evenodd" d="M148.205 43.6734V31.294H146.929V34.4287C146.38 33.4015 145.592 32.6045 144.564 32.0378C143.537 31.4711 142.385 31.1877 141.109 31.1877C139.816 31.1877 138.638 31.4711 137.575 32.0378C136.53 32.6045 135.706 33.4015 135.104 34.4287C134.501 35.4559 134.2 36.6159 134.2 37.9088C134.2 39.2016 134.501 40.3616 135.104 41.3888C135.706 42.416 136.53 43.2218 137.575 43.8063C138.638 44.373 139.816 44.6564 141.109 44.6564C142.367 44.6564 143.501 44.3818 144.511 43.8328C145.521 43.2838 146.309 42.5046 146.876 41.4951V43.8328C146.876 45.6747 146.433 47.0295 145.547 47.8973C144.662 48.7828 143.297 49.2256 141.455 49.2256C140.357 49.2256 139.32 49.0485 138.346 48.6943C137.371 48.3401 136.539 47.8442 135.848 47.2066L135.13 48.2161C135.821 48.9068 136.734 49.447 137.867 49.8366C139.001 50.2262 140.206 50.421 141.482 50.421C143.731 50.421 145.414 49.872 146.531 48.774C147.647 47.6759 148.205 45.9758 148.205 43.6734ZM144.139 42.7702C143.271 43.2307 142.296 43.4609 141.216 43.4609C140.135 43.4609 139.161 43.2307 138.293 42.7702C137.442 42.292 136.769 41.6368 136.273 40.8044C135.795 39.9543 135.555 38.9891 135.555 37.9088C135.555 36.8284 135.795 35.8721 136.273 35.0397C136.769 34.2073 137.442 33.5609 138.293 33.1004C139.161 32.6223 140.135 32.3832 141.216 32.3832C142.296 32.3832 143.271 32.6223 144.139 33.1004C145.007 33.5609 145.68 34.2073 146.159 35.0397C146.655 35.8721 146.903 36.8284 146.903 37.9088C146.903 38.9891 146.655 39.9543 146.159 40.8044C145.68 41.6368 145.007 42.292 144.139 42.7702Z" fill="white"/>
    <path fill-rule="evenodd" clip-rule="evenodd" d="M162.014 43.5937C161.252 43.9125 160.419 44.0719 159.516 44.0719C158.099 44.0719 156.885 43.7 155.875 42.9562C154.865 42.2123 154.192 41.2029 153.856 39.9277L165.575 37.6431C165.522 36.4211 165.203 35.3231 164.618 34.349C164.051 33.3572 163.281 32.5868 162.306 32.0378C161.349 31.4711 160.269 31.1877 159.064 31.1877C157.771 31.1877 156.61 31.4888 155.583 32.0909C154.555 32.6931 153.749 33.5255 153.165 34.5881C152.598 35.6507 152.314 36.8639 152.314 38.2275C152.314 39.5912 152.615 40.8044 153.218 41.867C153.838 42.9296 154.688 43.762 155.769 44.3641C156.867 44.9663 158.107 45.2674 159.489 45.2674C160.57 45.2674 161.562 45.0814 162.466 44.7095C163.369 44.3199 164.122 43.7531 164.724 43.0093L163.954 42.1326C163.44 42.7702 162.793 43.2572 162.014 43.5937ZM156.247 33.1004C157.08 32.6045 158.019 32.3566 159.064 32.3566C159.985 32.3566 160.818 32.5603 161.562 32.9676C162.306 33.3572 162.908 33.8974 163.369 34.5881C163.83 35.2788 164.122 36.0403 164.246 36.8727L153.67 38.9448C153.634 38.5906 153.616 38.3161 153.616 38.1213C153.616 37.0055 153.847 36.0138 154.307 35.146C154.768 34.2604 155.415 33.5786 156.247 33.1004Z" fill="white"/>
    <path d="M180.581 32.702C179.571 31.6925 178.198 31.1877 176.462 31.1877C175.168 31.1877 174.043 31.4622 173.087 32.0112C172.148 32.5603 171.439 33.3218 170.961 34.2959V31.294H169.685V45.1611H171.014V37.7759C171.014 36.1289 171.483 34.8183 172.422 33.8443C173.361 32.8702 174.646 32.3832 176.276 32.3832C177.693 32.3832 178.791 32.7905 179.571 33.6052C180.368 34.4198 180.767 35.6064 180.767 37.1649V45.1611H182.095V37.0587C182.095 35.1637 181.59 33.7114 180.581 32.702Z" fill="white"/>
    <path d="M189.478 44.3641C190.541 44.9663 191.746 45.2674 193.093 45.2674C194.209 45.2674 195.218 45.0548 196.122 44.6298C197.043 44.187 197.787 43.5495 198.354 42.7171L197.371 41.9998C196.875 42.6905 196.255 43.213 195.511 43.5672C194.784 43.9037 193.978 44.0719 193.093 44.0719C192.012 44.0719 191.037 43.8328 190.169 43.3547C189.319 42.8588 188.646 42.1681 188.15 41.2826C187.671 40.397 187.432 39.3787 187.432 38.2275C187.432 37.0764 187.671 36.058 188.15 35.1725C188.646 34.287 189.319 33.6052 190.169 33.127C191.037 32.6311 192.012 32.3832 193.093 32.3832C193.978 32.3832 194.784 32.5603 195.511 32.9145C196.255 33.251 196.875 33.7646 197.371 34.4553L198.354 33.738C197.787 32.9056 197.043 32.2769 196.122 31.8519C195.218 31.4091 194.209 31.1877 193.093 31.1877C191.746 31.1877 190.541 31.4888 189.478 32.0909C188.415 32.6754 187.583 33.5078 186.98 34.5881C186.378 35.6507 186.077 36.8639 186.077 38.2275C186.077 39.5735 186.378 40.7867 186.98 41.867C187.583 42.9296 188.415 43.762 189.478 44.3641Z" fill="white"/>
    <path d="M214.477 43.6734V31.294H213.148V38.0681C213.148 39.7152 212.687 41.0258 211.766 41.9998C210.862 42.9739 209.631 43.4609 208.072 43.4609C206.619 43.4609 205.494 43.0536 204.697 42.2389C203.9 41.4242 203.501 40.2377 203.501 38.6792V31.294H202.173V38.7854C202.173 40.6804 202.686 42.1326 203.714 43.1421C204.741 44.1516 206.159 44.6564 207.966 44.6564C209.153 44.6564 210.189 44.3996 211.075 43.886C211.979 43.3547 212.669 42.6285 213.148 41.7076V43.8328C213.148 45.6747 212.749 47.0295 211.952 47.8973C211.155 48.7828 209.915 49.2256 208.232 49.2256C207.222 49.2256 206.274 49.0485 205.388 48.6943C204.502 48.3401 203.749 47.8442 203.129 47.2066L202.412 48.2161C203.05 48.9068 203.891 49.447 204.936 49.8366C205.982 50.2262 207.098 50.421 208.285 50.421C210.357 50.421 211.908 49.872 212.935 48.774C213.963 47.6759 214.477 45.9758 214.477 43.6734Z" fill="white"/>
</svg>
