<svg width="154" height="43" viewBox="0 0 154 43" fill="none" xmlns="http://www.w3.org/2000/svg">
<path fill-rule="evenodd" clip-rule="evenodd" d="M12.7291 36.3891C14.3934 36.6316 15.6822 35.1425 15.5789 33.4497C15.4755 31.757 13.9945 30.521 12.3812 30.0426C11.664 29.8299 10.9728 29.5245 10.3256 29.1307C8.80237 28.2038 7.59487 26.8312 6.86382 25.1954C6.13269 23.5596 5.91258 21.7382 6.23272 19.9732C6.55289 18.2082 7.39811 16.5833 8.65607 15.3145C9.91397 14.0457 11.5251 13.193 13.2751 12.87C15.0251 12.547 16.8312 12.7688 18.4532 13.506C20.0752 14.2431 21.4364 15.4608 22.3556 16.9969C22.7461 17.6496 23.0491 18.3466 23.26 19.0699C23.7345 20.6969 24.9602 22.1904 26.6386 22.2945C28.317 22.3986 29.7935 21.0986 29.5529 19.4202C29.2704 17.4499 28.5998 15.5456 27.5694 13.8236C26.0113 11.2199 23.7043 9.15612 20.9551 7.90661C18.206 6.65717 15.1448 6.28124 12.1787 6.82879C9.21257 7.3763 6.48187 8.82142 4.34979 10.9719C2.21766 13.1224 0.785075 15.8765 0.24246 18.868C-0.300152 21.8595 0.072919 24.9467 1.31208 27.7192C2.55124 30.4917 4.59778 32.8181 7.17965 34.3892C8.8872 35.4283 10.7754 36.1045 12.7291 36.3891ZM20.2221 22.8215C20.3392 23.8723 21.1934 24.789 22.2322 24.9329L22.4619 24.9649C23.1317 25.0585 23.7449 25.1442 24.1812 25.1442C27.1358 25.1442 29.531 27.5597 29.531 30.5396C29.531 33.5194 27.1358 35.935 24.1812 35.935C21.2266 35.935 18.8314 33.5194 18.8314 30.5396C18.8314 29.9945 18.6479 29.2755 18.4581 28.5316C18.2216 27.6047 17.3302 26.9289 16.3813 26.9103C16.1444 26.9057 15.9105 26.8981 15.6841 26.8908C15.3579 26.8802 15.0472 26.8701 14.7656 26.8701C11.811 26.8701 9.41576 24.4545 9.41576 21.4747C9.41576 18.4949 11.811 16.0792 14.7656 16.0792C17.7202 16.0792 20.1154 18.4949 20.1154 21.4747C20.1154 21.8641 20.1674 22.3312 20.2221 22.8215Z" fill="url(#paint0_linear_756_1190)"/>
<path d="M53.562 32.0892C51.2406 32.0892 49.1838 31.6477 47.3918 30.7646C45.6202 29.8815 44.2355 28.6287 43.2377 27.0062C42.2602 25.3632 41.7715 23.4533 41.7715 21.2763C41.7715 19.0788 42.2602 17.138 43.2377 15.454C44.2151 13.7494 45.5591 12.435 47.2697 11.5108C48.9802 10.5661 50.8944 10.0938 53.0122 10.0938C55.13 10.0938 57.0442 10.5661 58.7548 11.5108C60.4653 12.435 61.8093 13.7494 62.7868 15.454C63.7642 17.138 64.2529 19.0788 64.2529 21.2763C64.2529 23.022 63.8558 24.6239 63.0617 26.082C62.2878 27.5197 61.2595 28.6184 59.9766 29.3783H64.5889V32.0892H53.562ZM53.0122 29.2243C54.5802 29.2243 55.9751 28.9162 57.1969 28.3001C58.4188 27.684 59.3657 26.7803 60.0377 25.5892C60.73 24.3775 61.0762 22.9398 61.0762 21.2763C61.0762 19.6333 60.7198 18.1855 60.0071 16.9327C59.2944 15.6594 58.3271 14.6838 57.1053 14.0061C55.8835 13.3284 54.5191 12.9895 53.0122 12.9895C51.5053 12.9895 50.1308 13.3284 48.8886 14.0061C47.6668 14.6838 46.6995 15.6491 45.9868 16.9019C45.274 18.1546 44.9177 19.6128 44.9177 21.2763C44.9177 22.9604 45.2537 24.398 45.9257 25.5892C46.618 26.7803 47.5751 27.684 48.7969 28.3001C50.0188 28.9162 51.4238 29.2243 53.0122 29.2243ZM75.7189 32.5513C72.8069 32.5513 70.6077 31.8017 69.1211 30.3025C67.6346 28.7827 66.8913 26.6982 66.8913 24.0489V10.5558H70.0069V24.1721C70.0069 25.9999 70.516 27.3862 71.5342 28.3309C72.5524 29.2551 73.9473 29.7172 75.7189 29.7172C77.4702 29.7172 78.8549 29.2551 79.8731 28.3309C80.8913 27.3862 81.4004 25.9999 81.4004 24.1721V10.5558H84.516V24.0489C84.516 26.6776 83.7728 28.7519 82.2862 30.2717C80.7997 31.7914 78.6106 32.5513 75.7189 32.5513ZM94.7265 10.5558H97.7199L106.242 32.0892H103.065L100.927 26.729H91.4887L89.4116 32.0892H86.2043L94.7265 10.5558ZM100.072 24.1105L96.2232 14.0369L92.3745 24.1105H100.072ZM109.3 10.5558H116.173C118.474 10.5558 120.469 10.9871 122.159 11.8497C123.85 12.7123 125.143 13.9445 126.039 15.5464C126.955 17.1483 127.413 19.0377 127.413 21.2147C127.413 24.7882 126.385 27.4991 124.328 29.3475C122.292 31.1753 119.431 32.0892 115.745 32.0892H109.3V10.5558ZM115.714 29.4707C118.565 29.4707 120.703 28.7622 122.129 27.3451C123.554 25.928 124.267 23.8846 124.267 21.2147C124.267 18.7502 123.565 16.7992 122.159 15.3616C120.775 13.924 118.789 13.2052 116.203 13.2052H112.415V29.4707H115.714ZM140.796 32.5513C138.678 32.5513 136.764 32.0892 135.053 31.165C133.343 30.2203 131.999 28.8957 131.021 27.1911C130.044 25.4865 129.555 23.5354 129.555 21.3379C129.555 19.1404 130.044 17.1894 131.021 15.4848C131.999 13.7802 133.343 12.4555 135.053 11.5108C136.764 10.5661 138.678 10.0938 140.796 10.0938C142.914 10.0938 144.828 10.5661 146.539 11.5108C148.249 12.4555 149.593 13.7802 150.571 15.4848C151.548 17.1894 152.037 19.1404 152.037 21.3379C152.037 23.5354 151.548 25.4865 150.571 27.1911C149.593 28.8957 148.249 30.2203 146.539 31.165C144.828 32.0892 142.914 32.5513 140.796 32.5513ZM140.796 29.7172C142.303 29.7172 143.667 29.3783 144.889 28.7006C146.131 28.0023 147.109 27.0268 147.821 25.774C148.534 24.5007 148.891 23.022 148.891 21.3379C148.891 19.6744 148.534 18.2163 147.821 16.9635C147.129 15.6902 146.172 14.7146 144.95 14.0369C143.728 13.3386 142.364 12.9895 140.857 12.9895C139.33 12.9895 137.945 13.3284 136.703 14.0061C135.481 14.6838 134.504 15.6594 133.771 16.9327C133.058 18.206 132.701 19.6744 132.701 21.3379C132.701 23.022 133.058 24.5007 133.771 25.774C134.483 27.0268 135.451 28.0023 136.672 28.7006C137.915 29.3783 139.289 29.7172 140.796 29.7172Z" fill="white"/>
<defs>
<linearGradient id="paint0_linear_756_1190" x1="4.56382" y1="10.1933" x2="29.8801" y2="36.1633" gradientUnits="userSpaceOnUse">
<stop stop-color="#ED2828"/>
<stop offset="1" stop-color="#871519"/>
</linearGradient>
</defs>
</svg>
